<svg xmlns="http://www.w3.org/2000/svg" width="30" height="30"><path d="M3 0h24a3 3 0 0 1 3 3v24a3 3 0 0 1-3 3H3a3 3 0 0 1-3-3V3a3 3 0 0 1 3-3zm2.286 4.286a1 1 0 0 0-1 1v9.143a1 1 0 0 0 1 1h9.143a1 1 0 0 0 1-1v-9.143a1 1 0 0 0-1-1H5.286zm17.857 18.857h-7.57a1 1 0 0 0-1 1v.57a1 1 0 0 0 1 1h9.143a1 1 0 0 0 1-1V15.57a1 1 0 0 0-1-1h-.57a1 1 0 0 0-1 1v7.57zM18 18h-7.57a1 1 0 0 0-1 1v.57a1 1 0 0 0 1 1h9.143a1 1 0 0 0 1-1v-9.143a1 1 0 0 0-1-1h-.57a1 1 0 0 0-1 1V18z" fill="#232528" fill-rule="nonzero"/></svg>