<svg xmlns="http://www.w3.org/2000/svg" xmlns:xlink="http://www.w3.org/1999/xlink" width="29" height="29"><defs><circle id="A" cx="12.5" cy="12.5" r="12.5"/><filter x="-14.0%" y="-10.0%" width="128.0%" height="128.0%" id="B"><feOffset dy="1" in="SourceAlpha"/><feGaussianBlur stdDeviation="1"/><feComposite in2="SourceAlpha" operator="out"/><feColorMatrix values="0 0 0 0 0.137254902 0 0 0 0 0.145098039 0 0 0 0 0.156862745 0 0 0 0.6 0"/></filter></defs><g transform="translate(2 1)" fill="none"><use filter="url(#B)" xlink:href="#A" fill="#000"/><g stroke="#232528"><circle cx="12.5" cy="12.5" r="12.125" stroke-width=".75" fill="#E53422" fill-rule="evenodd"/><path d="M12.5 16a2.5 2.5 0 1 0 0 5 2.5 2.5 0 1 0 0-5zM10 5.735l.424 7.893a.69.69 0 0 0 .686.659h2.778a.69.69 0 0 0 .686-.659L15 5.735c.02-.4-.292-.734-.686-.734h-3.627c-.394 0-.707.335-.686.734z" stroke-width=".5" fill="#fff"/></g></g></svg>