<svg xmlns="http://www.w3.org/2000/svg" xmlns:xlink="http://www.w3.org/1999/xlink" width="50" height="50"><defs><path d="M28.55 8.864l-11.795 7.59L3.025 8.5l12.772-6.683L28.55 8.864zm-26.51.91l13.617 7.377v15.074L2.042 23.97V9.774zm14.797 23.2V17.366l12.436-6.84v14.667L16.84 32.974z" id="A"/><filter x="-25.7%" y="-16.0%" width="151.4%" height="144.9%" id="B"><feOffset dy="2" in="SourceAlpha"/><feGaussianBlur stdDeviation="2"/><feColorMatrix values="0 0 0 0 0.137254902 0 0 0 0 0.145098039 0 0 0 0 0.156862745 0 0 0 0.6 0"/></filter><path d="M22.994 7.712l-9.23 5.86L3.02 7.43l9.993-5.16 9.98 5.443zm-21.18.384l11.12 6.586V28.14L1.816 20.77V8.096zm12.8 19.456V14.467L24.5 8.73v12.297l-9.895 6.524z" id="C"/><filter x="-30.8%" y="-19.3%" width="161.7%" height="154.1%" id="D"><feOffset dy="2" in="SourceAlpha"/><feGaussianBlur stdDeviation="2"/><feColorMatrix values="0 0 0 0 0.137254902 0 0 0 0 0.145098039 0 0 0 0 0.156862745 0 0 0 0.6 0"/></filter><path d="M19.907 6.48l-8.305 5.513-9.67-5.778 8.993-4.855 8.98 5.12zm-19 .635l10.44 5.715V24.5L.908 18.113V7.116zm11.8 16.824V12.936l7.262-4.823v10.34L12.71 23.94z" id="E"/><filter x="-36.7%" y="-21.6%" width="173.4%" height="160.5%" id="F"><feOffset dy="2" in="SourceAlpha"/><feGaussianBlur stdDeviation="2"/><feColorMatrix values="0 0 0 0 0.137254902 0 0 0 0 0.145098039 0 0 0 0 0.156862745 0 0 0 0.6 0"/></filter></defs><g fill="none"><g transform="translate(2.723)"><use filter="url(#B)" xlink:href="#A" fill="#000"/><use xlink:href="#A" fill="#F59024"/><path d="M14.448.7L1.885 6.977A3 3 0 0 0 .227 9.659v14.288a3 3 0 0 0 1.419 2.55l13.416 8.318a3 3 0 0 0 3.301-.092l10.995-7.692a3 3 0 0 0 1.28-2.458V9.634a3 3 0 0 0-1.598-2.652L17.192.72a3 3 0 0 0-2.744-.03zM27.38 8.952l-10.715 6.592L4.193 8.636 15.794 2.83 27.38 8.952zm-24.62 1.77l12.67 7.02v14.342L2.76 24.227V10.722zm15.205 21.203V17.7l10.137-6.235v13.367l-10.137 7.092z" fill="#3E4248"/></g><g transform="translate(23.602 13.163)"><use filter="url(#D)" xlink:href="#C" fill="#000"/><use xlink:href="#C" fill="#0AADF9"/><path d="M11.643.71l-10 5.078A3 3 0 0 0 0 8.462V20.07a3 3 0 0 0 1.403 2.539l10.703 6.733a3 3 0 0 0 3.334-.093l8.714-6.187a3 3 0 0 0 1.263-2.446V8.433a3 3 0 0 0-1.582-2.644L14.42.74a3 3 0 0 0-2.776-.031zm11.053 6.884l-8.955 5.6-10.425-5.86L13.012 2.4l9.684 5.192zm-20.578 1.5l10.59 5.953V27.2l-10.59-6.663V9.093zm12.71 17.982V15.012L23.3 9.725V21.06l-8.473 6.015z" fill="#3E4248"/></g><g transform="translate(0 22.694)"><use filter="url(#F)" xlink:href="#E" fill="#000"/><use xlink:href="#E" fill="#80CA0F"/><path d="M9.77.72L1.63 4.895A3 3 0 0 0 0 7.564v9.596a3 3 0 0 0 1.391 2.532l8.73 5.547a3 3 0 0 0 3.357-.094l7.056-5.06a3 3 0 0 0 1.252-2.438V7.533a3 3 0 0 0-1.571-2.638L12.567.753A3 3 0 0 0 9.769.721zm9.684 5.85l-7.676 4.84L2.84 6.34l8.312-4.262 8.3 4.494zm-17.638 1.3l9.078 5.153v10.53l-9.078-5.768V7.872zM12.71 23.44V12.996l7.262-4.577v9.814L12.71 23.44z" fill="#3E4248"/></g></g></svg>