<svg xmlns="http://www.w3.org/2000/svg" xmlns:xlink="http://www.w3.org/1999/xlink" width="49" height="49"><style><![CDATA[.B{fill:#000}.C{stroke:#232528}.D{fill:#0AADF9}.E{fill-rule:evenodd}]]></style><defs><rect id="A" x="20" width="5" height="11" rx="2" y="0"/><filter x="-70.0%" y="-22.7%" width="240.0%" height="163.6%" id="B"><feOffset dy="1" in="SourceAlpha"/><feGaussianBlur stdDeviation="1"/><feComposite in2="SourceAlpha" operator="out"/><feColorMatrix values="0 0 0 0 0.137254902 0 0 0 0 0.145098039 0 0 0 0 0.156862745 0 0 0 0.6 0"/></filter><path d="M33.317 2.764l.866.5a2 2 0 0 1 .732 2.732l-3.5 6.062a2 2 0 0 1-2.732.732l-.866-.5a2 2 0 0 1-.732-2.732l3.5-6.062a2 2 0 0 1 2.732-.732z" id="C"/><filter x="-41.8%" y="-23.7%" width="183.7%" height="166.3%" id="D"><feOffset dy="1" in="SourceAlpha"/><feGaussianBlur stdDeviation="1"/><feComposite in2="SourceAlpha" operator="out"/><feColorMatrix values="0 0 0 0 0.137254902 0 0 0 0 0.145098039 0 0 0 0 0.156862745 0 0 0 0.6 0"/></filter><path d="M41.736 10.817l.5.866a2 2 0 0 1-.732 2.732l-6.062 3.5a2 2 0 0 1-2.732-.732l-.5-.866a2 2 0 0 1 .732-2.732l6.062-3.5a2 2 0 0 1 2.732.732z" id="E"/><filter x="-33.1%" y="-29.9%" width="166.3%" height="183.7%" id="F"><feOffset dy="1" in="SourceAlpha"/><feGaussianBlur stdDeviation="1"/><feComposite in2="SourceAlpha" operator="out"/><feColorMatrix values="0 0 0 0 0.137254902 0 0 0 0 0.145098039 0 0 0 0 0.156862745 0 0 0 0.6 0"/></filter><path d="M45 22v1a2 2 0 0 1-2 2h-7a2 2 0 0 1-2-2v-1a2 2 0 0 1 2-2h7a2 2 0 0 1 2 2z" id="G"/><filter x="-31.8%" y="-50.0%" width="163.6%" height="240.0%" id="H"><feOffset dy="1" in="SourceAlpha"/><feGaussianBlur stdDeviation="1"/><feComposite in2="SourceAlpha" operator="out"/><feColorMatrix values="0 0 0 0 0.137254902 0 0 0 0 0.145098039 0 0 0 0 0.156862745 0 0 0 0.6 0"/></filter><path d="M42.236 33.317l-.5.866a2 2 0 0 1-2.732.732l-6.062-3.5a2 2 0 0 1-.732-2.732l.5-.866a2 2 0 0 1 2.732-.732l6.062 3.5a2 2 0 0 1 .732 2.732z" id="I"/><path d="M34.183 41.736l-.866.5a2 2 0 0 1-2.732-.732l-3.5-6.062a2 2 0 0 1 .732-2.732l.866-.5a2 2 0 0 1 2.732.732l3.5 6.062a2 2 0 0 1-.732 2.732z" id="J"/><path d="M23 45h-1a2 2 0 0 1-2-2v-7a2 2 0 0 1 2-2h1a2 2 0 0 1 2 2v7a2 2 0 0 1-2 2z" id="K"/><path d="M11.683 42.236l-.866-.5a2 2 0 0 1-.732-2.732l3.5-6.062a2 2 0 0 1 2.732-.732l.866.5a2 2 0 0 1 .732 2.732l-3.5 6.062a2 2 0 0 1-2.732.732z" id="L"/><path d="M3.264 34.183l-.5-.866a2 2 0 0 1 .732-2.732l6.062-3.5a2 2 0 0 1 2.732.732l.5.866a2 2 0 0 1-.732 2.732l-6.062 3.5a2 2 0 0 1-2.732-.732z" id="M"/><path d="M0 23v-1a2 2 0 0 1 2-2h7a2 2 0 0 1 2 2v1a2 2 0 0 1-2 2H2a2 2 0 0 1-2-2z" id="N"/><path d="M2.764 11.683l.5-.866a2 2 0 0 1 2.732-.732l6.062 3.5a2 2 0 0 1 .732 2.732l-.5.866a2 2 0 0 1-2.732.732l-6.062-3.5a2 2 0 0 1-.732-2.732z" id="O"/><path d="M10.817 3.264l.866-.5a2 2 0 0 1 2.732.732l3.5 6.062a2 2 0 0 1-.732 2.732l-.866.5a2 2 0 0 1-2.732-.732l-3.5-6.062a2 2 0 0 1 .732-2.732z" id="P"/></defs><g transform="translate(2 1)"><use filter="url(#B)" xlink:href="#A" class="B"/><rect x="20.5" y=".5" width="4" height="10" rx="2" class="C D E"/><use filter="url(#D)" xlink:href="#C" class="B"/><path d="M33.067 3.197a1.5 1.5 0 0 0-2.049.549l-3.5 6.062a1.5 1.5 0 0 0 .549 2.049l.866.5a1.5 1.5 0 0 0 2.049-.549l3.5-6.062a1.5 1.5 0 0 0-.549-2.049l-.866-.5z" class="C D E"/><use filter="url(#F)" xlink:href="#E" class="B"/><path d="M41.303 11.067a1.5 1.5 0 0 0-2.049-.549l-6.062 3.5a1.5 1.5 0 0 0-.549 2.049l.5.866a1.5 1.5 0 0 0 2.049.549l6.062-3.5a1.5 1.5 0 0 0 .549-2.049l-.5-.866z" class="C D E"/><use filter="url(#H)" xlink:href="#G" class="B"/><path d="M44.5 22a1.5 1.5 0 0 0-1.5-1.5h-7a1.5 1.5 0 0 0-1.5 1.5v1a1.5 1.5 0 0 0 1.5 1.5h7a1.5 1.5 0 0 0 1.5-1.5v-1z" class="C D E"/><use filter="url(#F)" xlink:href="#I" class="B"/><path d="M41.803 33.067a1.5 1.5 0 0 0-.549-2.049l-6.062-3.5a1.5 1.5 0 0 0-2.049.549l-.5.866a1.5 1.5 0 0 0 .549 2.049l6.062 3.5a1.5 1.5 0 0 0 2.049-.549l.5-.866z" class="C D E"/><use filter="url(#D)" xlink:href="#J" class="B"/><path d="M33.933 41.303a1.5 1.5 0 0 0 .549-2.049l-3.5-6.062a1.5 1.5 0 0 0-2.049-.549l-.866.5a1.5 1.5 0 0 0-.549 2.049l3.5 6.062a1.5 1.5 0 0 0 2.049.549l.866-.5z" class="C D E"/><use filter="url(#B)" xlink:href="#K" class="B"/><path d="M23 44.5a1.5 1.5 0 0 0 1.5-1.5v-7a1.5 1.5 0 0 0-1.5-1.5h-1a1.5 1.5 0 0 0-1.5 1.5v7a1.5 1.5 0 0 0 1.5 1.5h1z" class="C D E"/><use filter="url(#D)" xlink:href="#L" class="B"/><path d="M11.933 41.803a1.5 1.5 0 0 0 2.049-.549l3.5-6.062a1.5 1.5 0 0 0-.549-2.049l-.866-.5a1.5 1.5 0 0 0-2.049.549l-3.5 6.062a1.5 1.5 0 0 0 .549 2.049l.866.5z" class="C D E"/><use filter="url(#F)" xlink:href="#M" class="B"/><path d="M3.697 33.933a1.5 1.5 0 0 0 2.049.549l6.062-3.5a1.5 1.5 0 0 0 .549-2.049l-.5-.866a1.5 1.5 0 0 0-2.049-.549l-6.062 3.5a1.5 1.5 0 0 0-.549 2.049l.5.866z" class="C D E"/><use filter="url(#H)" xlink:href="#N" class="B"/><path d="M.5 23A1.5 1.5 0 0 0 2 24.5h7a1.5 1.5 0 0 0 1.5-1.5v-1A1.5 1.5 0 0 0 9 20.5H2A1.5 1.5 0 0 0 .5 22v1z" class="C D E"/><use filter="url(#F)" xlink:href="#O" class="B"/><path d="M3.197 11.933a1.5 1.5 0 0 0 .549 2.049l6.062 3.5a1.5 1.5 0 0 0 2.049-.549l.5-.866a1.5 1.5 0 0 0-.549-2.049l-6.062-3.5a1.5 1.5 0 0 0-2.049.549l-.5.866z" class="C D E"/><use filter="url(#D)" xlink:href="#P" class="B"/><path d="M11.067 3.697a1.5 1.5 0 0 0-.549 2.049l3.5 6.062a1.5 1.5 0 0 0 2.049.549l.866-.5a1.5 1.5 0 0 0 .549-2.049l-3.5-6.062a1.5 1.5 0 0 0-2.049-.549l-.866.5z" class="C D E"/></g></svg>