<svg xmlns="http://www.w3.org/2000/svg" width="32" height="32"><g fill-rule="nonzero"><rect x=".5" y=".5" width="31" height="31" rx="2" stroke="#232528" fill="#E7E8EA"/><path d="M8.125 21.91l-4.56-4.558a1.25 1.25 0 0 1 0-1.768l4.558-4.558a1.25 1.25 0 0 1 1.768 0l.884.884a1.25 1.25 0 0 1 0 1.768l-2.8 2.79 2.79 2.8a1.25 1.25 0 0 1 0 1.768l-.884.884a1.25 1.25 0 0 1-1.768 0zm13.04-.884a1.25 1.25 0 0 1 0-1.768l2.8-2.79-2.8-2.8a1.25 1.25 0 0 1 0-1.768l.884-.884a1.25 1.25 0 0 1 1.768 0l4.558 4.558a1.25 1.25 0 0 1 0 1.768l-4.558 4.558a1.25 1.25 0 0 1-1.768 0l-.884-.884zm-3.95-13.55l2.125.57a.5.5 0 0 1 .354.612l-4.296 16.034a.5.5 0 0 1-.612.354l-2.125-.57a.5.5 0 0 1-.354-.612L16.603 7.83a.5.5 0 0 1 .612-.354z" fill="#232528"/></g></svg>