<svg width="280" height="100" viewBox="0 0 840 300" fill="none" xmlns="http://www.w3.org/2000/svg">
<path d="M286.508 247H277.074V230.195H286.133V232.562H279.863V237.32H285.641V239.676H279.863V244.645H286.508V247ZM299.047 235L294.407 247H291.465L287.047 235H290L292.661 243.391C292.864 244.008 292.989 244.547 293.036 245.008H293.071C293.141 244.43 293.25 243.906 293.399 243.438L296.188 235H299.047ZM310.392 241.738H302.212C302.243 242.848 302.583 243.703 303.231 244.305C303.888 244.906 304.786 245.207 305.927 245.207C307.208 245.207 308.384 244.824 309.454 244.059V246.25C308.36 246.938 306.915 247.281 305.118 247.281C303.353 247.281 301.966 246.738 300.958 245.652C299.958 244.559 299.458 243.023 299.458 241.047C299.458 239.18 300.009 237.66 301.11 236.488C302.22 235.309 303.595 234.719 305.235 234.719C306.876 234.719 308.145 235.246 309.044 236.301C309.942 237.355 310.392 238.82 310.392 240.695V241.738ZM307.767 239.816C307.759 238.84 307.528 238.082 307.075 237.543C306.622 236.996 305.997 236.723 305.2 236.723C304.419 236.723 303.755 237.008 303.208 237.578C302.669 238.148 302.337 238.895 302.212 239.816H307.767ZM319.462 237.59C319.134 237.332 318.662 237.203 318.044 237.203C317.24 237.203 316.568 237.566 316.029 238.293C315.49 239.02 315.22 240.008 315.22 241.258V247H312.501V235H315.22V237.473H315.267C315.533 236.629 315.939 235.973 316.486 235.504C317.04 235.027 317.658 234.789 318.337 234.789C318.83 234.789 319.205 234.863 319.462 235.012V237.59ZM332.26 235L326.846 248.922C325.721 251.406 324.143 252.648 322.111 252.648C321.541 252.648 321.064 252.598 320.682 252.496V250.234C321.111 250.375 321.502 250.445 321.853 250.445C322.869 250.445 323.627 249.945 324.127 248.945L324.935 246.977L320.166 235H323.178L326.037 243.719C326.068 243.828 326.139 244.117 326.248 244.586H326.307C326.346 244.406 326.416 244.125 326.518 243.742L329.518 235H332.26ZM352.745 247H349.112L343.265 239.312C343.046 239.023 342.913 238.828 342.866 238.727H342.819V247H340.03V230.195H342.819V238.094H342.866C342.96 237.922 343.093 237.73 343.265 237.52L348.901 230.195H352.241L345.643 238.258L352.745 247ZM355.288 232.48C354.843 232.48 354.46 232.336 354.14 232.047C353.827 231.758 353.671 231.391 353.671 230.945C353.671 230.5 353.827 230.129 354.14 229.832C354.46 229.535 354.843 229.387 355.288 229.387C355.749 229.387 356.14 229.535 356.46 229.832C356.781 230.129 356.941 230.5 356.941 230.945C356.941 231.367 356.781 231.73 356.46 232.035C356.14 232.332 355.749 232.48 355.288 232.48ZM356.636 247H353.917V235H356.636V247ZM370.629 247H367.91V244.961H367.863C366.988 246.508 365.64 247.281 363.82 247.281C362.344 247.281 361.16 246.746 360.269 245.676C359.387 244.598 358.945 243.133 358.945 241.281C358.945 239.297 359.433 237.707 360.41 236.512C361.394 235.316 362.703 234.719 364.336 234.719C365.953 234.719 367.129 235.367 367.863 236.664H367.91V229.234H370.629V247ZM367.945 241.516V239.945C367.945 239.094 367.668 238.371 367.113 237.777C366.558 237.184 365.851 236.887 364.992 236.887C363.976 236.887 363.176 237.266 362.59 238.023C362.012 238.781 361.723 239.832 361.723 241.176C361.723 242.395 362 243.359 362.555 244.07C363.117 244.773 363.871 245.125 364.816 245.125C365.746 245.125 366.5 244.785 367.078 244.105C367.656 243.418 367.945 242.555 367.945 241.516ZM391.852 246.297C390.587 246.953 389.012 247.281 387.13 247.281C384.692 247.281 382.739 246.512 381.27 244.973C379.802 243.434 379.067 241.414 379.067 238.914C379.067 236.227 379.891 234.055 381.54 232.398C383.196 230.742 385.286 229.914 387.809 229.914C389.434 229.914 390.782 230.145 391.852 230.605V233.371C390.72 232.699 389.47 232.363 388.102 232.363C386.282 232.363 384.805 232.945 383.673 234.109C382.548 235.273 381.985 236.828 381.985 238.773C381.985 240.625 382.512 242.102 383.567 243.203C384.622 244.297 386.009 244.844 387.727 244.844C389.313 244.844 390.688 244.469 391.852 243.719V246.297ZM403.466 247H400.829V245.125H400.783C399.954 246.562 398.74 247.281 397.138 247.281C395.958 247.281 395.033 246.961 394.361 246.32C393.697 245.68 393.365 244.832 393.365 243.777C393.365 241.512 394.669 240.191 397.279 239.816L400.841 239.312C400.841 237.602 400.029 236.746 398.404 236.746C396.974 236.746 395.685 237.238 394.536 238.223V235.844C395.802 235.094 397.263 234.719 398.919 234.719C401.95 234.719 403.466 236.211 403.466 239.195V247ZM400.841 241.105L398.322 241.457C397.54 241.559 396.95 241.75 396.552 242.031C396.161 242.305 395.966 242.789 395.966 243.484C395.966 243.992 396.146 244.41 396.505 244.738C396.872 245.059 397.361 245.219 397.97 245.219C398.798 245.219 399.482 244.93 400.021 244.352C400.568 243.766 400.841 243.031 400.841 242.148V241.105ZM417.002 247H414.283V240.238C414.283 237.996 413.49 236.875 411.904 236.875C411.076 236.875 410.392 237.188 409.853 237.812C409.314 238.43 409.045 239.211 409.045 240.156V247H406.314V235H409.045V236.992H409.092C409.99 235.477 411.287 234.719 412.982 234.719C414.287 234.719 415.283 235.145 415.97 235.996C416.658 236.84 417.002 238.062 417.002 239.664V247ZM438.003 246.297C436.737 246.953 435.163 247.281 433.28 247.281C430.842 247.281 428.889 246.512 427.421 244.973C425.952 243.434 425.217 241.414 425.217 238.914C425.217 236.227 426.042 234.055 427.69 232.398C429.346 230.742 431.436 229.914 433.96 229.914C435.585 229.914 436.932 230.145 438.003 230.605V233.371C436.87 232.699 435.62 232.363 434.253 232.363C432.432 232.363 430.956 232.945 429.823 234.109C428.698 235.273 428.135 236.828 428.135 238.773C428.135 240.625 428.663 242.102 429.717 243.203C430.772 244.297 432.159 244.844 433.878 244.844C435.464 244.844 436.839 244.469 438.003 243.719V246.297ZM445.726 247.281C443.874 247.281 442.394 246.723 441.284 245.605C440.183 244.48 439.632 242.992 439.632 241.141C439.632 239.125 440.206 237.551 441.355 236.418C442.511 235.285 444.066 234.719 446.019 234.719C447.894 234.719 449.355 235.27 450.402 236.371C451.448 237.473 451.972 239 451.972 240.953C451.972 242.867 451.405 244.402 450.273 245.559C449.148 246.707 447.632 247.281 445.726 247.281ZM445.855 236.887C444.792 236.887 443.952 237.258 443.335 238C442.718 238.742 442.409 239.766 442.409 241.07C442.409 242.328 442.722 243.32 443.347 244.047C443.972 244.766 444.808 245.125 445.855 245.125C446.925 245.125 447.745 244.77 448.316 244.059C448.894 243.348 449.183 242.336 449.183 241.023C449.183 239.703 448.894 238.684 448.316 237.965C447.745 237.246 446.925 236.887 445.855 236.887ZM465.179 247H462.461V244.961H462.414C461.539 246.508 460.191 247.281 458.371 247.281C456.894 247.281 455.711 246.746 454.82 245.676C453.937 244.598 453.496 243.133 453.496 241.281C453.496 239.297 453.984 237.707 454.961 236.512C455.945 235.316 457.254 234.719 458.886 234.719C460.504 234.719 461.679 235.367 462.414 236.664H462.461V229.234H465.179V247ZM462.496 241.516V239.945C462.496 239.094 462.218 238.371 461.664 237.777C461.109 237.184 460.402 236.887 459.543 236.887C458.527 236.887 457.726 237.266 457.14 238.023C456.562 238.781 456.273 239.832 456.273 241.176C456.273 242.395 456.55 243.359 457.105 244.07C457.668 244.773 458.422 245.125 459.367 245.125C460.297 245.125 461.05 244.785 461.629 244.105C462.207 243.418 462.496 242.555 462.496 241.516ZM478.41 241.738H470.231C470.262 242.848 470.602 243.703 471.25 244.305C471.906 244.906 472.805 245.207 473.945 245.207C475.227 245.207 476.402 244.824 477.473 244.059V246.25C476.379 246.938 474.934 247.281 473.137 247.281C471.371 247.281 469.985 246.738 468.977 245.652C467.977 244.559 467.477 243.023 467.477 241.047C467.477 239.18 468.027 237.66 469.129 236.488C470.238 235.309 471.613 234.719 473.254 234.719C474.895 234.719 476.164 235.246 477.063 236.301C477.961 237.355 478.41 238.82 478.41 240.695V241.738ZM475.785 239.816C475.777 238.84 475.547 238.082 475.094 237.543C474.641 236.996 474.016 236.723 473.219 236.723C472.438 236.723 471.774 237.008 471.227 237.578C470.688 238.148 470.356 238.895 470.231 239.816H475.785Z" fill="#666666"/>
<line x1="276" y1="215" x2="802" y2="215" stroke="#FFB900" stroke-width="8"/>
<path d="M326.773 141.328C326.773 136.826 325.605 134.083 323.27 133.102C320.934 132.086 318.022 131.578 314.535 131.578C307.358 131.578 300.841 133 294.984 135.844C289.161 138.654 286.25 142.039 286.25 146C286.25 148.844 287.536 151.332 290.109 153.465C292.716 155.564 298.37 157.883 307.07 160.422C315.5 162.859 321.492 165.382 325.047 167.988C328.635 170.561 330.43 173.676 330.43 177.332C330.43 181.022 327.941 185.017 322.965 189.316C317.988 193.582 311.979 196.832 304.938 199.066C297.93 201.301 291.971 202.418 287.062 202.418C282.966 202.418 279.852 201.927 277.719 200.945C275.62 199.997 274.57 198.796 274.57 197.34C274.57 196.324 274.875 195.089 275.484 193.633C276.128 192.143 276.771 191.398 277.414 191.398C278.091 191.398 278.785 191.517 279.496 191.754C283.118 193.108 286.707 193.785 290.262 193.785C296.66 193.785 303.448 191.923 310.625 188.199C317.802 184.441 321.391 180.938 321.391 177.688C321.391 176.299 320.29 174.979 318.09 173.727C315.923 172.44 310.405 170.392 301.535 167.582C290.533 164.095 283.762 160.71 281.223 157.426C278.717 154.108 277.465 150.621 277.465 146.965C277.465 139.923 281.51 134.253 289.602 129.953C297.693 125.62 306.156 123.453 314.992 123.453C320.849 123.453 325.352 124.452 328.5 126.449C331.648 128.413 333.223 130.596 333.223 133C333.223 134.151 332.867 135.827 332.156 138.027C331.445 140.228 329.651 141.328 326.773 141.328ZM375.08 157.832C371.931 157.9 365.194 167.227 354.869 185.812C351.382 192.076 349.351 195.495 348.775 196.07C348.2 196.612 347.133 197.103 345.576 197.543C344.052 197.983 342.783 198.203 341.767 198.203C339.499 198.203 338.365 193.785 338.365 184.949C338.365 179.973 339.431 170.967 341.564 157.934C342.444 152.652 342.884 148.878 342.884 146.609C342.884 144.375 343.883 143.258 345.881 143.258C349.638 143.258 351.517 145.966 351.517 151.383C351.517 153.922 350.891 158.898 349.638 166.312C348.183 174.776 347.438 179.922 347.404 181.75C349.503 179.719 352.584 175.267 356.646 168.395C362.401 158.983 366.633 153.025 369.342 150.52C372.084 147.98 374.911 146.711 377.822 146.711C380.023 146.711 381.766 148.184 383.052 151.129C384.373 154.074 385.168 161.099 385.439 172.203C385.507 174.979 385.761 177.044 386.201 178.398C386.641 179.753 386.963 180.43 387.166 180.43C388.757 180.43 392.21 175.013 397.525 164.18C400.369 158.458 403.128 154.108 405.802 151.129C408.511 148.15 411.507 146.66 414.791 146.66C417.533 146.66 419.53 148.082 420.783 150.926C422.036 153.736 422.933 157.917 423.474 163.469C423.982 169.089 424.761 174.234 425.81 178.906C426.894 183.578 428.857 186.574 431.701 187.895C433.631 188.809 434.595 189.875 434.595 191.094C434.595 192.279 433.783 193.497 432.158 194.75C430.533 196.003 429.043 196.629 427.689 196.629C424.981 196.629 422.56 194.97 420.427 191.652C418.295 188.335 416.687 181.158 415.603 170.121C415.129 165.686 414.672 162.538 414.232 160.676C413.792 158.814 413.098 157.883 412.15 157.883C410.728 157.883 409.036 159.237 407.072 161.945C405.142 164.654 402.011 170.155 397.677 178.449C394.292 184.915 391.719 189.232 389.959 191.398C388.232 193.531 386.556 194.598 384.931 194.598C383.476 194.598 382.172 194.022 381.021 192.871C379.87 191.686 379.142 190.281 378.838 188.656C378.533 186.997 378.211 182.952 377.873 176.52C377.365 165.822 376.434 159.592 375.08 157.832ZM471.984 179.516C467.244 185.88 462.555 190.654 457.917 193.836C453.279 197.018 449.031 198.609 445.171 198.609C442.565 198.609 440.313 197.509 438.417 195.309C436.522 193.108 435.574 190.281 435.574 186.828C435.574 177.924 439.552 168.344 447.507 158.086C455.463 147.794 463.368 142.648 471.222 142.648C474.066 142.648 476.182 144.273 477.57 147.523C478.01 148.607 478.704 149.148 479.652 149.148C482.36 149.148 483.714 150.198 483.714 152.297C483.714 153.346 483.545 154.785 483.206 156.613C481.378 166.6 480.464 173.642 480.464 177.738C480.464 185.931 482.022 190.84 485.136 192.465C486.626 193.277 487.371 194.276 487.371 195.461C487.371 196.51 486.643 197.56 485.187 198.609C483.731 199.693 482.326 200.234 480.972 200.234C478.365 200.234 476.216 198.44 474.523 194.852C472.83 191.263 471.984 186.151 471.984 179.516ZM468.886 150.926C464.417 150.926 459.221 155.124 453.296 163.52C447.372 171.882 444.41 178.822 444.41 184.34C444.41 188.233 445.696 190.18 448.269 190.18C451.993 190.18 457.156 186.422 463.757 178.906C470.359 171.391 473.66 164.484 473.66 158.188C473.66 153.346 472.068 150.926 468.886 150.926ZM510.642 112.027C513.079 112.027 514.298 113.585 514.298 116.699C514.298 119.475 512.825 126.077 509.88 136.504C508.018 143.072 506.579 150.316 505.564 158.238C504.548 166.16 504.04 172.372 504.04 176.875C504.04 182.461 504.396 188.013 505.107 193.531C505.242 194.581 505.31 195.342 505.31 195.816C505.31 197.509 504.734 198.965 503.583 200.184C502.432 201.402 501.213 202.012 499.927 202.012C498.133 202.012 496.88 200.895 496.169 198.66C495.492 196.426 495.154 192.82 495.154 187.844C495.154 176.503 496.508 162.453 499.216 145.695C501.958 128.938 504.125 119.137 505.716 116.293C507.341 113.449 508.983 112.027 510.642 112.027ZM534.472 112.027C536.909 112.027 538.128 113.585 538.128 116.699C538.128 119.475 536.655 126.077 533.71 136.504C531.848 143.072 530.409 150.316 529.393 158.238C528.378 166.16 527.87 172.372 527.87 176.875C527.87 182.461 528.225 188.013 528.936 193.531C529.072 194.581 529.14 195.342 529.14 195.816C529.14 197.509 528.564 198.965 527.413 200.184C526.262 201.402 525.043 202.012 523.757 202.012C521.962 202.012 520.71 200.895 519.999 198.66C519.322 196.426 518.983 192.82 518.983 187.844C518.983 176.503 520.337 162.453 523.046 145.695C525.788 128.938 527.955 119.137 529.546 116.293C531.171 113.449 532.813 112.027 534.472 112.027ZM624.889 156.461C624.889 157.003 625.228 157.358 625.905 157.527C629.561 158.577 632.794 160.625 635.604 163.672C638.414 166.685 639.819 170.273 639.819 174.438C639.819 180.836 635.722 187.421 627.53 194.191C619.337 200.962 610.721 204.348 601.682 204.348C599.143 204.348 597.146 204.009 595.69 203.332C594.268 202.689 593.557 201.927 593.557 201.047C593.557 196.781 596.57 194.648 602.596 194.648C603.442 194.648 604.746 194.682 606.506 194.75C608.3 194.818 610.349 194.395 612.651 193.48C614.987 192.533 617.255 191.331 619.455 189.875C621.656 188.385 623.535 186.862 625.092 185.305C626.683 183.714 627.953 182.038 628.901 180.277C629.883 178.517 630.373 176.74 630.373 174.945C630.373 172.034 629.104 169.444 626.565 167.176C624.06 164.908 620.708 163.773 616.51 163.773C615.833 163.773 614.225 164.315 611.686 165.398C609.147 166.516 607.488 167.074 606.709 167.074C604.069 167.074 602.41 166.736 601.733 166.059C601.09 165.382 600.768 164.18 600.768 162.453C600.768 161.404 603.629 159.711 609.35 157.375C614.123 155.479 618.745 152.382 623.213 148.082C627.716 143.783 629.967 140.143 629.967 137.164C629.967 135.099 629.121 133.457 627.428 132.238C625.735 131.02 623.366 130.41 620.319 130.41C615.274 130.41 610.264 131.036 605.287 132.289C600.311 133.508 597.569 134.659 597.061 135.742C596.587 136.826 595.216 145.035 592.948 160.371C590.679 175.673 589.545 184.526 589.545 186.93C589.545 189.299 589.596 191.517 589.698 193.582C589.799 195.613 589.427 197.357 588.58 198.812C587.768 200.302 586.363 201.047 584.366 201.047C582.537 201.047 581.116 200.319 580.1 198.863C579.118 197.441 578.627 195.63 578.627 193.43C578.627 192.854 578.78 191.974 579.084 190.789C580.845 183.51 582.504 174.201 584.061 162.859C585.618 151.518 586.397 144.967 586.397 143.207C586.397 141.785 586.194 140.736 585.787 140.059C585.415 139.382 584.535 139.043 583.147 139.043C582.605 139.043 582.064 139.06 581.522 139.094C581.014 139.128 580.489 138.806 579.948 138.129C579.44 137.452 579.186 136.639 579.186 135.691C579.186 132.712 583.976 129.784 593.557 126.906C603.138 124.029 612.871 122.59 622.756 122.59C627.834 122.59 631.981 123.961 635.198 126.703C638.448 129.411 640.073 132.594 640.073 136.25C640.073 138.958 638.685 142.158 635.909 145.848C633.166 149.504 629.493 153.042 624.889 156.461ZM680.914 179.516C676.175 185.88 671.486 190.654 666.848 193.836C662.21 197.018 657.961 198.609 654.102 198.609C651.495 198.609 649.244 197.509 647.348 195.309C645.452 193.108 644.504 190.281 644.504 186.828C644.504 177.924 648.482 168.344 656.438 158.086C664.393 147.794 672.298 142.648 680.152 142.648C682.996 142.648 685.112 144.273 686.5 147.523C686.94 148.607 687.634 149.148 688.582 149.148C691.29 149.148 692.645 150.198 692.645 152.297C692.645 153.346 692.475 154.785 692.137 156.613C690.309 166.6 689.395 173.642 689.395 177.738C689.395 185.931 690.952 190.84 694.066 192.465C695.556 193.277 696.301 194.276 696.301 195.461C696.301 196.51 695.573 197.56 694.117 198.609C692.662 199.693 691.257 200.234 689.902 200.234C687.296 200.234 685.146 198.44 683.453 194.852C681.761 191.263 680.914 186.151 680.914 179.516ZM677.816 150.926C673.348 150.926 668.151 155.124 662.227 163.52C656.302 171.882 653.34 178.822 653.34 184.34C653.34 188.233 654.626 190.18 657.199 190.18C660.923 190.18 666.086 186.422 672.688 178.906C679.289 171.391 682.59 164.484 682.59 158.188C682.59 153.346 680.999 150.926 677.816 150.926ZM727.342 186.371C727.342 184.171 724.633 181.665 719.217 178.855C712.344 175.335 707.689 172.525 705.252 170.426C702.848 168.293 701.646 165.923 701.646 163.316C701.646 156.579 705.015 150.993 711.752 146.559C718.523 142.124 724.041 139.906 728.306 139.906C731.049 139.906 733.029 140.38 734.248 141.328C735.5 142.276 736.127 143.918 736.127 146.254C736.127 147.303 735.67 148.201 734.756 148.945C733.875 149.69 733.181 150.062 732.674 150.062C732.301 150.062 731.573 149.809 730.49 149.301C729.407 148.827 728.696 148.59 728.357 148.59C726.665 148.59 723.228 149.826 718.049 152.297C712.869 154.768 710.279 157.561 710.279 160.676C710.279 162.572 711.193 164.298 713.021 165.855C714.849 167.379 718.133 169.258 722.873 171.492C726.698 173.32 729.745 175.284 732.013 177.383C734.316 179.448 735.467 181.885 735.467 184.695C735.467 189.875 731.895 193.938 724.752 196.883C717.609 199.794 710.787 201.25 704.287 201.25C698.803 201.25 696.06 199.388 696.06 195.664C696.06 194.378 696.67 193.43 697.888 192.82C699.141 192.211 700.394 191.906 701.646 191.906C702.154 191.906 703.119 192.076 704.541 192.414C705.929 192.753 706.843 192.922 707.283 192.922C711.041 192.922 715.069 192.296 719.369 191.043C723.668 189.79 726.326 188.233 727.342 186.371ZM756.402 130.004C755.691 130.004 755.149 129.242 754.777 127.719C754.641 127.245 754.455 126.72 754.218 126.145C753.304 123.944 752.847 122.031 752.847 120.406C752.847 119.052 753.643 117.681 755.234 116.293C756.859 114.871 758.653 114.16 760.617 114.16C761.599 114.16 762.699 114.549 763.918 115.328C765.136 116.073 765.746 116.801 765.746 117.512C765.746 118.629 765.322 120.525 764.476 123.199C763.664 125.874 762.343 127.685 760.515 128.633C758.721 129.547 757.35 130.004 756.402 130.004ZM749.75 186.727C749.75 189.299 750.105 192.194 750.816 195.41C750.951 196.02 751.019 196.527 751.019 196.934C751.019 197.543 750.461 198.322 749.343 199.27C748.226 200.251 747.041 200.742 745.789 200.742C742.505 200.742 740.863 197.729 740.863 191.703C740.863 185.474 742.149 175.622 744.722 162.148C745.602 157.443 746.043 154.548 746.043 153.465C746.043 151.332 746.432 149.521 747.211 148.031C747.989 146.508 749.089 145.746 750.511 145.746C752.238 145.746 753.592 146.169 754.574 147.016C755.589 147.828 756.097 148.742 756.097 149.758C756.097 150.773 755.86 152.111 755.386 153.77C752.847 162.707 751.273 169.105 750.664 172.965C750.054 176.824 749.75 181.411 749.75 186.727ZM778.048 200.895C772.97 200.895 769.06 199.439 766.318 196.527C763.609 193.616 762.255 189.536 762.255 184.289C762.255 175.453 765.759 166.143 772.767 156.359C779.775 146.542 786.292 141.633 792.318 141.633C795.06 141.633 797.413 143.122 799.376 146.102C801.374 149.047 802.372 152.178 802.372 155.496C802.372 157.493 801.932 159.22 801.052 160.676C800.206 162.098 799.342 162.809 798.462 162.809C796.499 162.809 795.111 160.828 794.298 156.867C793.384 152.602 792.064 150.469 790.337 150.469C786.816 150.469 782.652 154.65 777.845 163.012C773.038 171.374 770.634 178.432 770.634 184.188C770.634 189.943 773.901 192.82 780.435 192.82C785.411 192.82 791.268 190.484 798.005 185.812C800.375 184.154 802.118 183.324 803.236 183.324C804.387 183.324 804.962 183.984 804.962 185.305C804.962 187.878 801.932 191.128 795.872 195.055C789.812 198.948 783.871 200.895 778.048 200.895Z" fill="#F35025"/>
<path d="M316.596 104H310.604V80.4375C310.604 78.5078 310.722 76.1465 310.959 73.3535H310.857C310.485 74.9447 310.155 76.0872 309.867 76.7812L299 104H294.836L283.943 76.9844C283.639 76.1888 283.317 74.9785 282.979 73.3535H282.877C283.012 74.8092 283.08 77.1875 283.08 80.4883V104H277.494V67.5898H286L295.572 91.8379C296.3 93.6999 296.774 95.0879 296.994 96.002H297.121C297.747 94.0892 298.255 92.6673 298.645 91.7363L308.395 67.5898H316.596V104ZM326.855 72.541C325.89 72.541 325.06 72.2279 324.366 71.6016C323.689 70.9753 323.351 70.1797 323.351 69.2148C323.351 68.25 323.689 67.446 324.366 66.8027C325.06 66.1595 325.89 65.8379 326.855 65.8379C327.853 65.8379 328.7 66.1595 329.394 66.8027C330.088 67.446 330.435 68.25 330.435 69.2148C330.435 70.1289 330.088 70.916 329.394 71.5762C328.7 72.2194 327.853 72.541 326.855 72.541ZM329.774 104H323.884V78H329.774V104ZM355.065 102.807C352.982 104.008 350.52 104.609 347.676 104.609C343.816 104.609 340.702 103.408 338.332 101.004C335.962 98.5833 334.777 95.4518 334.777 91.6094C334.777 87.3268 336.047 83.8906 338.586 81.3008C341.142 78.694 344.553 77.3906 348.818 77.3906C351.188 77.3906 353.279 77.8053 355.09 78.6348V84.1191C353.279 82.765 351.349 82.0879 349.301 82.0879C346.813 82.0879 344.773 82.9342 343.182 84.627C341.591 86.3027 340.795 88.5033 340.795 91.2285C340.795 93.9199 341.54 96.0443 343.029 97.6016C344.536 99.1589 346.55 99.9375 349.072 99.9375C351.188 99.9375 353.186 99.1842 355.065 97.6777V102.807ZM374.972 83.6113C374.261 83.0527 373.237 82.7734 371.9 82.7734C370.156 82.7734 368.7 83.5605 367.532 85.1348C366.364 86.709 365.78 88.8503 365.78 91.5586V104H359.89V78H365.78V83.3574H365.882C366.457 81.5293 367.338 80.1074 368.523 79.0918C369.724 78.0592 371.062 77.543 372.534 77.543C373.601 77.543 374.413 77.7038 374.972 78.0254V83.6113ZM389.166 104.609C385.154 104.609 381.947 103.399 379.543 100.979C377.156 98.541 375.963 95.3164 375.963 91.3047C375.963 86.9375 377.207 83.5267 379.695 81.0723C382.201 78.6178 385.569 77.3906 389.801 77.3906C393.863 77.3906 397.029 78.584 399.297 80.9707C401.565 83.3574 402.699 86.6667 402.699 90.8984C402.699 95.0456 401.472 98.3717 399.018 100.877C396.58 103.365 393.296 104.609 389.166 104.609ZM389.445 82.0879C387.143 82.0879 385.324 82.8919 383.986 84.5C382.649 86.1081 381.981 88.3255 381.981 91.1523C381.981 93.8776 382.658 96.0273 384.012 97.6016C385.366 99.1589 387.177 99.9375 389.445 99.9375C391.764 99.9375 393.542 99.1673 394.777 97.627C396.03 96.0866 396.656 93.8945 396.656 91.0508C396.656 88.1901 396.03 85.9811 394.777 84.4238C393.542 82.8665 391.764 82.0879 389.445 82.0879ZM406.052 103.188V97.7285C408.252 99.4043 410.682 100.242 413.339 100.242C416.894 100.242 418.671 99.1927 418.671 97.0938C418.671 96.5013 418.519 96.002 418.214 95.5957C417.909 95.1725 417.495 94.8001 416.97 94.4785C416.462 94.1569 415.853 93.8691 415.142 93.6152C414.448 93.3613 413.669 93.0736 412.806 92.752C411.739 92.3288 410.775 91.8802 409.911 91.4062C409.065 90.9323 408.354 90.3991 407.779 89.8066C407.22 89.1973 406.797 88.5117 406.509 87.75C406.221 86.9883 406.077 86.0996 406.077 85.084C406.077 83.8314 406.374 82.7311 406.966 81.7832C407.558 80.8184 408.354 80.0143 409.353 79.3711C410.351 78.7109 411.486 78.2201 412.755 77.8984C414.025 77.5599 415.336 77.3906 416.691 77.3906C419.094 77.3906 421.244 77.7546 423.14 78.4824V83.6367C421.312 82.3841 419.213 81.7578 416.843 81.7578C416.098 81.7578 415.421 81.834 414.812 81.9863C414.219 82.1387 413.711 82.3503 413.288 82.6211C412.865 82.8919 412.535 83.222 412.298 83.6113C412.061 83.9837 411.943 84.3984 411.943 84.8555C411.943 85.4141 412.061 85.888 412.298 86.2773C412.535 86.6667 412.882 87.0137 413.339 87.3184C413.813 87.6061 414.372 87.877 415.015 88.1309C415.675 88.3678 416.428 88.6302 417.275 88.918C418.392 89.375 419.39 89.8405 420.271 90.3145C421.168 90.7884 421.93 91.3301 422.556 91.9395C423.182 92.5319 423.665 93.2259 424.003 94.0215C424.342 94.8001 424.511 95.7311 424.511 96.8145C424.511 98.1348 424.206 99.2858 423.597 100.268C422.988 101.249 422.175 102.062 421.159 102.705C420.144 103.348 418.967 103.822 417.63 104.127C416.31 104.449 414.913 104.609 413.441 104.609C410.597 104.609 408.134 104.135 406.052 103.188ZM440.61 104.609C436.598 104.609 433.39 103.399 430.987 100.979C428.6 98.541 427.406 95.3164 427.406 91.3047C427.406 86.9375 428.651 83.5267 431.139 81.0723C433.644 78.6178 437.013 77.3906 441.244 77.3906C445.307 77.3906 448.472 78.584 450.74 80.9707C453.009 83.3574 454.143 86.6667 454.143 90.8984C454.143 95.0456 452.916 98.3717 450.461 100.877C448.024 103.365 444.74 104.609 440.61 104.609ZM440.889 82.0879C438.587 82.0879 436.767 82.8919 435.43 84.5C434.093 86.1081 433.424 88.3255 433.424 91.1523C433.424 93.8776 434.101 96.0273 435.455 97.6016C436.809 99.1589 438.621 99.9375 440.889 99.9375C443.208 99.9375 444.985 99.1673 446.221 97.627C447.474 96.0866 448.1 93.8945 448.1 91.0508C448.1 88.1901 447.474 85.9811 446.221 84.4238C444.985 82.8665 443.208 82.0879 440.889 82.0879ZM472.958 70.3066C472.163 69.8496 471.257 69.6211 470.241 69.6211C467.381 69.6211 465.95 71.2376 465.95 74.4707V78H471.993V82.6211H465.976V104H460.085V82.6211H455.642V78H460.085V73.7852C460.085 71.043 460.982 68.8848 462.777 67.3105C464.571 65.7194 466.814 64.9238 469.505 64.9238C470.961 64.9238 472.112 65.0846 472.958 65.4062V70.3066ZM489.819 103.721C488.668 104.296 487.153 104.584 485.274 104.584C480.229 104.584 477.707 102.163 477.707 97.3223V82.6211H473.366V78H477.707V71.9824L483.598 70.3066V78H489.819V82.6211H483.598V95.6211C483.598 97.1615 483.877 98.2617 484.436 98.9219C484.994 99.582 485.925 99.9121 487.229 99.9121C488.228 99.9121 489.091 99.6243 489.819 99.0488V103.721Z" fill="#666666"/>
<path d="M193.5 100L225 68C199.97 47.3443 183.51 40.6348 150 37V82L193.5 100Z" fill="#7FBA00"/>
<path d="M97.5 100L66 68C91.0298 47.3443 107.49 40.6348 141 37V82L97.5 100Z" fill="#F35025"/>
<path d="M193.5 209L225 241C199.97 261.656 183.51 268.365 150 272V227L193.5 209Z" fill="#FFB900"/>
<path d="M97.5 209L66 241C91.0298 261.656 107.49 268.365 141 272V227L97.5 209Z" fill="#05A6F0"/>
<path d="M91 106.5L59 75C38.3443 100.03 31.6348 116.49 28 150H73L91 106.5Z" fill="#F35025"/>
<path d="M199 106.5L231 75C251.656 100.03 258.365 116.49 262 150H217L199 106.5Z" fill="#7FBA00"/>
<path d="M91 202.5L59 234C38.3443 208.97 31.6348 192.51 28 159H73L91 202.5Z" fill="#05A6F0"/>
<path d="M199 202.5L231 234C251.656 208.97 258.365 192.51 262 159H217L199 202.5Z" fill="#FFB900"/>
<path d="M104 171H88L100 200L141.5 217L141 155.5H126V194.5L111.5 188.5L104 171Z" fill="#666666"/>
<path d="M141 92V108L111.5 120.5L100.5 147H141V162H84L81 154.5L100 109L141 92Z" fill="#666666"/>
<path d="M191.5 108.5L150 91.5V108.5L179.5 120.5L193.5 154.5L179 189L150 201V217L191 201L210 154.5L191.5 108.5Z" fill="#666666"/>
<rect x="126" y="105" width="15" height="33" fill="#666666"/>
<rect x="157" y="162.5" width="15" height="46" transform="rotate(-90 157 162.5)" fill="#666666"/>
<rect x="150" y="106" width="15" height="97" fill="#666666"/>
</svg>
