<svg xmlns="http://www.w3.org/2000/svg" width="30" height="30"><path d="M3.83 10.213V5.83a2 2 0 0 1 2-2h4.383V1.596c0-.88.714-1.596 1.596-1.596s1.596.714 1.596 1.596V3.83h3.19V1.596C16.596.715 17.3 0 18.19 0s1.596.714 1.596 1.596V3.83h4.383a2 2 0 0 1 2 2v4.383h2.234c.88 0 1.596.714 1.596 1.596s-.714 1.596-1.596 1.596H26.17v3.192h2.234c.88 0 1.596.714 1.596 1.596s-.714 1.596-1.596 1.596H26.17v4.383a2 2 0 0 1-2 2h-4.383v2.234c0 .88-.714 1.596-1.596 1.596s-1.596-.715-1.596-1.596V26.17h-3.19v2.234c0 .88-.714 1.596-1.596 1.596s-1.596-.715-1.596-1.596V26.17H5.83a2 2 0 0 1-2-2v-4.383H1.596c-.88 0-1.596-.714-1.596-1.596s.714-1.596 1.596-1.596H3.83v-3.192H1.596C.714 13.404 0 12.7 0 11.808s.714-1.596 1.596-1.596H3.83zM9.66 7.66a2 2 0 0 0-2 2v10.68a2 2 0 0 0 2 2h10.68a2 2 0 0 0 2-2V9.66a2 2 0 0 0-2-2h-10.68zm3.19 3.192h4.298a2 2 0 0 1 2 2v4.298a2 2 0 0 1-2 2h-4.298a2 2 0 0 1-2-2v-4.298a2 2 0 0 1 2-2z" fill="#232528" fill-rule="nonzero"/></svg>