<svg xmlns="http://www.w3.org/2000/svg" width="30" height="30"><path d="M15 12.88l-3.182-3.182a1 1 0 0 0-1.414 0l-.707.707a1 1 0 0 0 0 1.415L12.88 15l-3.182 3.182a1 1 0 0 0 0 1.414l.707.708a1 1 0 0 0 1.414 0L15 17.12l3.182 3.182a1 1 0 0 0 1.414 0l.707-.708a1 1 0 0 0 0-1.414L17.12 15l3.182-3.182a1 1 0 0 0 0-1.415l-.707-.707a1 1 0 0 0-1.414 0L15 12.88zM26 23V6a1 1 0 0 0-1-1h-4a1 1 0 0 0-1 1v1a1 1 0 0 0 1 1h2v14h-2a1 1 0 0 0-1 1v1a1 1 0 0 0 1 1h4a1 1 0 0 0 1-1v-1zM7 22V8h2a1 1 0 0 0 1-1V6a1 1 0 0 0-1-1H5a1 1 0 0 0-1 1v18a1 1 0 0 0 1 1h4a1 1 0 0 0 1-1v-1a1 1 0 0 0-1-1H7zM3 0h24a3 3 0 0 1 3 3v24a3 3 0 0 1-3 3H3a3 3 0 0 1-3-3V3a3 3 0 0 1 3-3z" fill="#232528" fill-rule="nonzero"/></svg>