<svg xmlns="http://www.w3.org/2000/svg" xmlns:xlink="http://www.w3.org/1999/xlink" width="45" height="45"><defs><rect id="A" width="12" height="45" rx="3" y="0"/><filter x="-29.2%" y="-5.6%" width="158.3%" height="115.6%" id="B"><feOffset dy="1" in="SourceAlpha"/><feGaussianBlur stdDeviation="1"/><feComposite in2="SourceAlpha" operator="out"/><feColorMatrix values="0 0 0 0 0.137254902 0 0 0 0 0.145098039 0 0 0 0 0.156862745 0 0 0 0.6 0"/></filter><rect id="C" width="22" height="45" rx="3" y="0"/><filter x="-15.9%" y="-5.6%" width="131.8%" height="115.6%" id="D"><feOffset dy="1" in="SourceAlpha"/><feGaussianBlur stdDeviation="1"/><feComposite in2="SourceAlpha" operator="out"/><feColorMatrix values="0 0 0 0 0.137254902 0 0 0 0 0.145098039 0 0 0 0 0.156862745 0 0 0 0.6 0"/></filter><path d="M22 29H6a2 2 0 0 1-2-2v-9a2 2 0 0 1 2-2h16v-4.762c0-.25.064-.495.185-.7.33-.563.982-.706 1.46-.32l13.9 11.262c.106.086.198.194.27.32.33.563.208 1.334-.27 1.72l-13.9 11.262c-.175.142-.383.218-.595.218-.58 0-1.05-.554-1.05-1.238V29z" id="E"/><filter x="-10.3%" y="-10.0%" width="120.4%" height="128.0%" id="F"><feOffset dy="1" in="SourceAlpha"/><feGaussianBlur stdDeviation="1"/><feComposite in2="SourceAlpha" operator="out"/><feColorMatrix values="0 0 0 0 0.137254902 0 0 0 0 0.145098039 0 0 0 0 0.156862745 0 0 0 0.6 0"/></filter></defs><g fill="none"><use filter="url(#B)" xlink:href="#A" fill="#000"/><g stroke="#232528"><rect x=".5" y=".5" width="11" height="44" rx="3" fill="#0E9DDF" fill-rule="evenodd"/><rect x=".5" y="3.5" width="8" height="38" rx="3" fill="#fff"/></g><g transform="translate(23)"><use filter="url(#D)" xlink:href="#C" fill="#000"/><g stroke="#232528"><rect x=".5" y=".5" width="21" height="44" rx="3" fill="#0E9DDF" fill-rule="evenodd"/><rect x="3.5" y="3.5" width="18" height="38" rx="3" fill="#232528"/></g></g><g transform="matrix(-1 0 0 1 42 0)"><use filter="url(#F)" xlink:href="#E" fill="#000"/><path d="M6 28.5h16.5v5.262c0 .424.266.738.55.738.096 0 .193-.035.28-.106l13.9-11.262c.282-.228.36-.726.153-1.08-.043-.073-.095-.135-.153-.182l-13.9-11.262c-.233-.19-.536-.123-.714.182a.9.9 0 0 0-.117.449V16.5H6A1.5 1.5 0 0 0 4.5 18v9A1.5 1.5 0 0 0 6 28.5z" stroke="#232528" fill="#E53422" fill-rule="evenodd"/></g></g></svg>