<svg xmlns="http://www.w3.org/2000/svg" xmlns:xlink="http://www.w3.org/1999/xlink" width="49" height="49"><style><![CDATA[.H{stroke:#232528}.I{fill-rule:evenodd}]]></style><defs><path id="A" d="M0 11h45v10H0z"/><filter x="-7.8%" y="-25.0%" width="115.6%" height="170.0%" id="B"><feOffset dy="1" in="SourceAlpha"/><feGaussianBlur stdDeviation="1"/><feComposite in2="SourceAlpha" operator="out"/><feColorMatrix values="0 0 0 0 0.137254902 0 0 0 0 0.145098039 0 0 0 0 0.156862745 0 0 0 0.6 0"/></filter><path id="C" d="M0 23h45v10H0z"/><path d="M0 35h45v7a3 3 0 0 1-3 3H3a3 3 0 0 1-3-3v-7z" id="D"/><path d="M3 0h39a3 3 0 0 1 3 3v6H0V3a3 3 0 0 1 3-3z" id="E"/><filter x="-7.8%" y="-27.8%" width="115.6%" height="177.8%" id="F"><feOffset dy="1" in="SourceAlpha"/><feGaussianBlur stdDeviation="1"/><feComposite in2="SourceAlpha" operator="out"/><feColorMatrix values="0 0 0 0 0.137254902 0 0 0 0 0.145098039 0 0 0 0 0.156862745 0 0 0 0.6 0"/></filter><path d="M17 26V6a2 2 0 0 1 2-2h7a2 2 0 0 1 2 2v20h5.762a1.47 1.47 0 0 1 .701.173c.563.308.706.92.32 1.37L23.52 40.573c-.086.1-.194.185-.32.254-.563.308-1.334.195-1.72-.254l-11.262-13.03c-.142-.164-.218-.36-.218-.558 0-.544.554-.985 1.238-.985H17z" id="G"/><filter x="-14.0%" y="-6.8%" width="128.0%" height="118.8%" id="H"><feOffset dy="1" in="SourceAlpha"/><feGaussianBlur stdDeviation="1"/><feComposite in2="SourceAlpha" operator="out"/><feColorMatrix values="0 0 0 0 0.137254902 0 0 0 0 0.145098039 0 0 0 0 0.156862745 0 0 0 0.6 0"/></filter></defs><g transform="translate(2 1)" fill="none"><g transform="matrix(-1 0 0 1 45 0)"><use filter="url(#B)" xlink:href="#A" fill="#000"/><path d="M.5 11.5h44v9H.5z" fill="#fff" class="H I"/><use filter="url(#B)" xlink:href="#C" fill="#000"/><path d="M.5 23.5h44v9H.5z" fill="#fff" class="H I"/><use filter="url(#B)" xlink:href="#D" fill="#000"/><path d="M.5 35.5V42A2.5 2.5 0 0 0 3 44.5h39a2.5 2.5 0 0 0 2.5-2.5v-6.5H.5z" fill="#656A72" class="H I"/><use filter="url(#F)" xlink:href="#E" fill="#000"/><path d="M.5 8.5h44V3A2.5 2.5 0 0 0 42 .5H3A2.5 2.5 0 0 0 .5 3v5.5z" fill="#fff" class="H I"/></g><use filter="url(#H)" xlink:href="#G" fill="#000"/><path d="M17.5 6v20.5h-6.262c-.43 0-.738.245-.738.485 0 .076.03.156.096.23l11.262 13.03c.23.265.74.34 1.103.142a.65.65 0 0 0 .18-.142l11.262-13.03c.17-.197.114-.443-.18-.603a.97.97 0 0 0-.461-.112H27.5V6A1.5 1.5 0 0 0 26 4.5h-7A1.5 1.5 0 0 0 17.5 6z" fill="#80CA0F" class="H I"/></g></svg>