<svg xmlns="http://www.w3.org/2000/svg" xmlns:xlink="http://www.w3.org/1999/xlink" width="45" height="45"><style><![CDATA[.B{stroke:#232528}.C{fill-rule:evenodd}]]></style><defs><path id="A" d="M0 11h45v10H0z"/><filter x="-7.8%" y="-25.0%" width="115.6%" height="170.0%" id="B"><feOffset dy="1" in="SourceAlpha"/><feGaussianBlur stdDeviation="1"/><feComposite in2="SourceAlpha" operator="out"/><feColorMatrix values="0 0 0 0 0.137254902 0 0 0 0 0.145098039 0 0 0 0 0.156862745 0 0 0 0.6 0"/></filter><path id="C" d="M0 23h45v10H0z"/><path d="M0 35h45v7a3 3 0 0 1-3 3H3a3 3 0 0 1-3-3v-7z" id="D"/><path d="M3 0h39a3 3 0 0 1 3 3v6H0V3a3 3 0 0 1 3-3z" id="E"/><filter x="-7.8%" y="-27.8%" width="115.6%" height="177.8%" id="F"><feOffset dy="1" in="SourceAlpha"/><feGaussianBlur stdDeviation="1"/><feComposite in2="SourceAlpha" operator="out"/><feColorMatrix values="0 0 0 0 0.137254902 0 0 0 0 0.145098039 0 0 0 0 0.156862745 0 0 0 0.6 0"/></filter><path d="M33.5 27.5h-20a2 2 0 0 1-2-2v-7a2 2 0 0 1 2-2h20v-3.96c0-.2.056-.416.162-.59.288-.473.86-.593 1.278-.268l12.162 9.46a.99.99 0 0 1 .237.268c.288.473.182 1.12-.237 1.446l-12.162 9.46c-.153.12-.335.183-.52.183-.508 0-.92-.465-.92-1.04V27.5z" id="G"/><filter x="-9.7%" y="-11.9%" width="119.3%" height="133.3%" id="H"><feOffset dy="1" in="SourceAlpha"/><feGaussianBlur stdDeviation="1"/><feComposite in2="SourceAlpha" operator="out"/><feColorMatrix values="0 0 0 0 0.137254902 0 0 0 0 0.145098039 0 0 0 0 0.156862745 0 0 0 0.6 0"/></filter></defs><g fill="none"><g transform="matrix(-1 0 0 1 45 0)"><use filter="url(#B)" xlink:href="#A" fill="#000"/><path d="M.5 11.5h44v9H.5z" fill="#fff" class="B C"/><use filter="url(#B)" xlink:href="#C" fill="#000"/><path d="M.5 23.5h44v9H.5z" fill="#fff" class="B C"/><use filter="url(#B)" xlink:href="#D" fill="#000"/><path d="M.5 35.5V42A2.5 2.5 0 0 0 3 44.5h39a2.5 2.5 0 0 0 2.5-2.5v-6.5H.5z" fill="#656A72" class="B C"/><use filter="url(#F)" xlink:href="#E" fill="#000"/><path d="M.5 8.5h44V3A2.5 2.5 0 0 0 42 .5H3A2.5 2.5 0 0 0 .5 3v5.5z" fill="#fff" class="B C"/></g><g transform="matrix(0 1 -1 0 51.5 -7.5)"><use filter="url(#H)" xlink:href="#G" fill="#000"/><path d="M13.5 27H34v4.46c0 .31.202.54.42.54.073 0 .147-.026.214-.078l12.162-9.46c.214-.167.274-.532.116-.79a.49.49 0 0 0-.116-.133l-12.162-9.46c-.178-.138-.408-.1-.544.133a.64.64 0 0 0-.089.329V17H13.5a1.5 1.5 0 0 0-1.5 1.5v7a1.5 1.5 0 0 0 1.5 1.5z" fill="#80CA0F" class="B C"/></g></g></svg>