<svg xmlns="http://www.w3.org/2000/svg" xmlns:xlink="http://www.w3.org/1999/xlink" width="54" height="54"><defs><path d="M26.908 5.765c2.1-3.54 4.2-4.896 6.892-5.514l-5.96 28.433c-2.206 2.415-2.004 5.03.605 7.842-6.46.203-9.44.03-8.942-.522 2.34-2.583 2.363-5.023.066-7.32 3.16-12.966 5.25-19.38 7.34-22.92z" id="A"/><filter x="-23.6%" y="-6.9%" width="147.9%" height="119.3%" id="B"><feOffset dy="1" in="SourceAlpha"/><feGaussianBlur stdDeviation="1"/><feComposite in2="SourceAlpha" operator="out"/><feColorMatrix values="0 0 0 0 0.137254902 0 0 0 0 0.145098039 0 0 0 0 0.156862745 0 0 0 0.6 0"/></filter><path d="M22.095 48.864c-4.39-2.047-6.3-7.267-4.243-11.657s7.267-6.3 11.657-4.243 6.3 7.267 4.243 11.657-7.267 6.3-11.657 4.243zm2.06-4.417a3.9 3.9 0 0 0 5.181-1.886 3.9 3.9 0 0 0-1.886-5.181 3.9 3.9 0 0 0-5.181 1.886 3.9 3.9 0 0 0 1.886 5.181z" id="C"/><filter x="-19.9%" y="-14.2%" width="139.9%" height="139.9%" id="D"><feOffset dy="1" in="SourceAlpha"/><feGaussianBlur stdDeviation="1"/><feComposite in2="SourceAlpha" operator="out"/><feColorMatrix values="0 0 0 0 0.137254902 0 0 0 0 0.145098039 0 0 0 0 0.156862745 0 0 0 0.6 0"/></filter><path d="M44.137 22.995c-3.54 2.1-9.953 4.178-22.92 7.34-2.297-2.297-4.737-2.275-7.32.066-.55.5-.725-2.48-.522-8.942 2.813 2.6 5.427 2.81 7.842.605l28.433-5.96c-.617 2.69-1.975 4.802-5.514 6.892z" id="E"/><filter x="-9.6%" y="-17.4%" width="119.3%" height="148.4%" id="F"><feOffset dy="1" in="SourceAlpha"/><feGaussianBlur stdDeviation="1"/><feComposite in2="SourceAlpha" operator="out"/><feColorMatrix values="0 0 0 0 0.137254902 0 0 0 0 0.145098039 0 0 0 0 0.156862745 0 0 0 0.6 0"/></filter><path d="M1.04 27.808c-2.047-4.39-.148-9.6 4.243-11.657s9.6-.148 11.657 4.243.148 9.6-4.243 11.657-9.6.148-11.657-4.243zm4.42-2.06a3.9 3.9 0 0 0 5.18 1.885 3.9 3.9 0 0 0 1.885-5.18 3.9 3.9 0 0 0-5.18-1.885 3.9 3.9 0 0 0-1.885 5.18z" id="G"/></defs><g transform="translate(2 1)"><use filter="url(#B)" xlink:href="#A" fill="#000"/><path d="M20.12 28.535c2.175 2.314 2.203 4.838.105 7.398.28.047.673.087 1.168.116 1.308.076 3.308.08 5.994.008-2.075-2.668-2.094-5.252-.01-7.607L33.144.943c-2.382.726-4.098 2.186-5.806 5.077-2.07 3.506-4.147 9.946-7.22 22.515zm-.23 7.787l-.017.018a.27.27 0 0 0 .04-.06z" stroke="#232528" fill="#BABEC4" fill-rule="evenodd"/><use filter="url(#D)" xlink:href="#C" fill="#000"/><path d="M22.306 48.4c4.14 1.93 9.062.14 10.993-4s.14-9.062-4-10.993-9.062-.14-10.993 4-.14 9.062 4 10.993zm1.637-3.5a4.4 4.4 0 0 1-2.128-5.845 4.4 4.4 0 0 1 5.845-2.128 4.4 4.4 0 0 1 2.128 5.845 4.4 4.4 0 0 1-5.845 2.128z" stroke="#232528" fill="#F59024" fill-rule="evenodd"/><use filter="url(#F)" xlink:href="#E" fill="#000"/><path d="M48.96 16.76l-27.507 5.767c-2.355 2.084-4.94 2.065-7.607-.01l.008 5.994.116 1.168c2.56-2.1 5.084-2.07 7.398.105 12.57-3.072 19.01-5.148 22.515-7.22 2.89-1.707 4.35-3.424 5.077-5.806z" stroke="#232528" fill="#BABEC4" fill-rule="evenodd"/><use filter="url(#D)" xlink:href="#G" fill="#000"/><path d="M1.492 27.596c1.93 4.14 6.852 5.932 10.993 4s5.932-6.852 4-10.993-6.852-5.932-10.993-4-5.932 6.852-4 10.993zm3.515-1.637a4.4 4.4 0 0 1 2.127-5.844 4.4 4.4 0 0 1 5.844 2.127 4.4 4.4 0 0 1-2.127 5.844 4.4 4.4 0 0 1-5.844-2.127z" stroke="#232528" fill="#F59024" fill-rule="evenodd"/><circle transform="matrix(.707107 .707107 -.707107 .707107 25.155718 -8.954934)" cx="23.387" cy="25.888" r="1" fill="#232528"/></g></svg>