<svg xmlns="http://www.w3.org/2000/svg" xmlns:xlink="http://www.w3.org/1999/xlink" width="54" height="54"><defs><circle id="A" cx="25" cy="25" r="25"/><filter x="-6.5%" y="-5.5%" width="113.0%" height="113.0%" id="B"><feOffset dy="0.5" in="SourceAlpha"/><feGaussianBlur stdDeviation="1"/><feColorMatrix values="0 0 0 0 0.137254902 0 0 0 0 0.145098039 0 0 0 0 0.156862745 0 0 0 0.3 0"/></filter><path d="M8.447 15.99l-6-4.52c-.822-.62-.987-1.79-.367-2.61s1.79-.987 2.61-.367l9.357 7.05 9.357-7.05c.822-.62 1.992-.455 2.61.367s.455 1.992-.367 2.61l-6 4.52h5.985c1.03 0 1.865.835 1.865 1.865s-.835 1.865-1.865 1.865h-6.043l5.215 3.93c.822.62.987 1.79.367 2.61s-1.79.987-2.61.367l-8.514-6.416-8.514 6.416c-.822.62-1.992.455-2.61-.367s-.455-1.992.367-2.61l5.215-3.93h-6.14C1.335 19.72.5 18.885.5 17.855s.835-1.865 1.865-1.865h6.082z" id="C"/><filter x="-13.0%" y="-13.2%" width="125.9%" height="137.1%" id="D"><feOffset dy="1" in="SourceAlpha"/><feGaussianBlur stdDeviation="1"/><feColorMatrix values="0 0 0 0 0.7294599 0 0 0 0 0.744584954 0 0 0 0 0.767272534 0 0 0 1 0"/></filter><path d="M14.06 27.838c5.807 0 9.537-5.255 9.537-11.738s-3.73-8.56-9.537-8.56-9.598 2.076-9.598 8.56 3.79 11.738 9.598 11.738z" id="E"/><filter x="-10.5%" y="-4.9%" width="120.9%" height="119.7%" id="F"><feOffset dy="1" in="SourceAlpha"/><feGaussianBlur stdDeviation=".5"/><feComposite in2="SourceAlpha" operator="out"/><feColorMatrix values="0 0 0 0 0.137254902 0 0 0 0 0.145098039 0 0 0 0 0.156862745 0 0 0 0.5 0"/></filter><path d="M41.04 16.308L12.22 38.015A18.18 18.18 0 0 0 25 43.24c10.074 0 18.24-8.166 18.24-18.24a18.16 18.16 0 0 0-2.2-8.692zM8.39 32.55l28.447-21.426C33.652 8.402 29.518 6.76 25 6.76 14.926 6.76 6.76 14.926 6.76 25c0 2.692.583 5.25 1.63 7.55zM25 49C11.745 49 1 38.255 1 25S11.745 1 25 1s24 10.745 24 24-10.745 24-24 24z" id="G"/><filter x="-8.3%" y="-6.2%" width="116.7%" height="116.7%" id="H"><feMorphology radius="0.5" operator="dilate" in="SourceAlpha"/><feOffset dy="1"/><feGaussianBlur stdDeviation="1"/><feComposite in2="SourceAlpha" operator="out"/><feColorMatrix values="0 0 0 0 0.137254902 0 0 0 0 0.145098039 0 0 0 0 0.156862745 0 0 0 0.6 0"/></filter></defs><g transform="translate(2 1)" fill="none"><use filter="url(#B)" xlink:href="#A" fill="#000"/><use xlink:href="#A" fill="#232528"/><circle cx="25" cy="25" r="23" fill="#BABEC4"/><g transform="translate(11 10)"><use filter="url(#D)" xlink:href="#C" fill="#000"/><use xlink:href="#C" fill="#232528"/><use filter="url(#F)" xlink:href="#E" fill="#000"/><path d="M14.06 27.463c5.39 0 9.162-4.83 9.162-11.363 0-5.798-2.976-8.184-9.162-8.184-6.205 0-9.223 2.397-9.223 8.184 0 6.515 3.82 11.363 9.223 11.363z" stroke="#232528" stroke-width=".75" fill="#F59024" fill-rule="evenodd"/><path d="M15.284 12.86v13.756c0 .675-.547 1.223-1.223 1.223s-1.223-.547-1.223-1.223V12.86c0-.675.547-1.223 1.223-1.223s1.223.547 1.223 1.223zm1.6-10l2.3-2.52.066-.066A1.02 1.02 0 0 1 20.69.34c.426.467.426 1.182 0 1.65L18.5 4.4C19.437 5.613 20 7.23 20 9c-1.558-.598-3.275-.936-5.15-1.013-.08.007-.163.004-.243-.01L14 7.97l-.607.01a1.19 1.19 0 0 1-.243.01c-1.875.074-3.592.412-5.15 1 0-1.77.563-3.387 1.492-4.62L7.312 2c-.426-.467-.426-1.182 0-1.65A1.02 1.02 0 0 1 8.751.276l.066.066 2.3 2.52C11.97 2.312 12.954 2 14 2a5.32 5.32 0 0 1 2.885.86z" fill-rule="nonzero" fill="#232528"/></g><use filter="url(#H)" xlink:href="#G" fill="#000"/><path d="M40.957 16.684L12.605 38.038C15.924 41.195 20.32 43 25 43c9.936 0 18-8.054 18-18a17.91 17.91 0 0 0-2.033-8.316zM8.49 32.16l27.945-21.048A17.91 17.91 0 0 0 25 7.01C15.064 7 7 15.064 7 25c0 2.497.51 4.92 1.48 7.16zM25 49.25C11.607 49.25.75 38.393.75 25S11.607.75 25 .75 49.25 11.607 49.25 25 38.393 49.25 25 49.25z" stroke="#232528" stroke-width=".5" fill="#E53422" fill-rule="evenodd"/></g></svg>