<svg xmlns="http://www.w3.org/2000/svg" xmlns:xlink="http://www.w3.org/1999/xlink" width="45" height="45"><style><![CDATA[.B{stroke:#232528}.C{stroke-width:.5}.D{fill-rule:nonzero}.E{fill:#0AADF9}.F{fill:#80CA0F}.G{fill-rule:evenodd}]]></style><defs><rect id="A" width="45" height="45" rx="3" y="0"/><filter x="-7.8%" y="-5.6%" width="115.6%" height="115.6%" id="B"><feOffset dy="1" in="SourceAlpha"/><feGaussianBlur stdDeviation="1"/><feComposite in2="SourceAlpha" operator="out"/><feColorMatrix values="0 0 0 0 0.137254902 0 0 0 0 0.145098039 0 0 0 0 0.156862745 0 0 0 0.6 0"/></filter><rect id="C" width="23" height="23" rx="3" y="0"/><filter x="-15.2%" y="-10.9%" width="130.4%" height="130.4%" id="D"><feOffset dy="1" in="SourceAlpha"/><feGaussianBlur stdDeviation="1"/><feComposite in2="SourceAlpha" operator="out"/><feColorMatrix values="0 0 0 0 0.137254902 0 0 0 0 0.145098039 0 0 0 0 0.156862745 0 0 0 0.6 0"/></filter></defs><g fill="none"><use filter="url(#B)" xlink:href="#A" fill="#000"/><g class="B"><rect x=".5" y=".5" width="44" height="44" rx="3" fill="#fff" class="G"/><path d="M.5 6.5h44V3A2.5 2.5 0 0 0 42 .5H3A2.5 2.5 0 0 0 .5 3v3.5z" fill="#BABEC4" class="D"/><path d="M.5 6.5h44v6H.5z" fill="#E7E8EA"/><g transform="matrix(1 0 0 -1 0 13)" class="C"><rect x="2.75" y="1.75" width="3.5" height="3.5" rx=".5" fill="#fff"/><rect x="38.75" y="1.75" width="3.5" height="3.5" rx="1.75" fill="#D0021B"/><rect x="33.75" y="1.75" width="3.5" height="3.5" rx="1.75" class="F"/></g></g><g fill="#E53422"><path d="M2.007 3.5C2.1 2.506 2.996 1.55 4 1.502V3.5H2.007z"/><path d="M2 3.5a2 2 0 0 1 2-2" class="B C"/></g><g class="F"><path d="M5.993 3.5C5.9 2.506 5.004 1.55 4 1.502V3.5h1.993z"/><path d="M6 3.5a2 2 0 0 0-2-2" class="B C"/></g><g fill="#F1EA22"><path d="M5.993 3.5C5.9 4.494 5.004 5.45 4 5.498V3.5h1.993z"/><path d="M6 3.5a2 2 0 0 1-2 2" class="B C"/></g><g class="E"><path d="M2.007 3.5c.083.994.99 1.95 1.993 1.998V3.5H2.007z"/><path d="M2 3.5a2 2 0 0 0 2 2" class="B C"/></g><g class="B"><g class="C D"><g fill="#BABEC4"><path d="M.25 18.25h6.5v5.5H.25z"/><path d="M.25 23.75h6.5v5.5H.25z"/><path d="M.25 29.25h6.5v5.5H.25z"/><path d="M.25 34.75h6.5v5.5H.25z"/></g><path d="M.25 40.25V42A2.75 2.75 0 0 0 3 44.75h3.75v-4.5H.25z" class="E"/><path d="M.25 12.25h6.5v5.5H.25z" fill="#656A72"/></g><path d="M6.5 12.5v32H3A2.5 2.5 0 0 1 .5 42V12.5h6z"/></g><g class="D"><path d="M1 13h3v3H1z" fill="#656A72"/><g stroke-width=".25" class="B"><rect x="1.125" y="13.125" width="3.75" height="3.75" rx=".5" fill="#F59024"/><rect x="3.125" y="15.125" width="2.75" height="2.75" rx=".5" class="E"/><rect x="1.125" y="16.125" width="1.75" height="1.75" rx=".5" class="F"/></g></g><g transform="translate(11 17)"><use filter="url(#D)" xlink:href="#C" fill="#000"/><rect x=".5" y=".5" width="22" height="22" rx="3" fill="#fff" class="B G"/><path d="M8.09 14.22a.61.61 0 0 1-.858 0L5.02 12.026a.6.6 0 0 1 0-.852L7.232 8.98a.61.61 0 0 1 .858 0l.43.426a.6.6 0 0 1 0 .851L7.165 11.6l1.355 1.343a.6.6 0 0 1 0 .852l-.43.425zm6.36-.425a.6.6 0 0 1 0-.852l1.354-1.343-1.354-1.343a.6.6 0 0 1 0-.851l.43-.426a.61.61 0 0 1 .858 0l2.213 2.194a.6.6 0 0 1 0 .852L15.74 14.22a.61.61 0 0 1-.858 0l-.43-.425zm-1.846-6.387c.413.11.658.533.55.945l-1.807 6.69a.78.78 0 0 1-.953.55c-.413-.11-.658-.533-.55-.945l1.807-6.69a.78.78 0 0 1 .953-.55z" fill="#232528"/></g><path d="M17.314 2v7.5h-4.38a.5.5 0 0 0-.397.804l9.476 12.358a.5.5 0 0 0 .793 0L32.3 10.305a.5.5 0 0 0-.397-.805h-4.59V2a1.5 1.5 0 0 0-1.5-1.5h-7a1.5 1.5 0 0 0-1.5 1.5z" class="B D E"/></g></svg>