<svg xmlns="http://www.w3.org/2000/svg" xmlns:xlink="http://www.w3.org/1999/xlink" width="45" height="45"><defs><path d="M3 5h24V3a3 3 0 0 1 3-3h12a3 3 0 0 1 3 3v39a3 3 0 0 1-3 3H3a3 3 0 0 1-3-3V8a3 3 0 0 1 3-3z" id="A"/><filter x="-7.8%" y="-5.6%" width="115.6%" height="115.6%" id="B"><feOffset dy="1" in="SourceAlpha"/><feGaussianBlur stdDeviation="1"/><feComposite in2="SourceAlpha" operator="out"/><feColorMatrix values="0 0 0 0 0.137254902 0 0 0 0 0.145098039 0 0 0 0 0.156862745 0 0 0 0.6 0"/></filter><rect id="C" y="13" width="45" height="32" rx="3"/><filter x="-7.8%" y="-14.1%" width="115.6%" height="121.9%" id="D"><feOffset dy="-1" in="SourceAlpha"/><feGaussianBlur stdDeviation="1"/><feComposite in2="SourceAlpha" operator="out"/><feColorMatrix values="0 0 0 0 0.137254902 0 0 0 0 0.145098039 0 0 0 0 0.156862745 0 0 0 0.6 0"/></filter><path d="M19.914 19V9.985c0-1.59-1.514-2.985-3.5-2.985-1.776 0-3.2 1.13-3.46 2.534a3 3 0 1 1-5.907-1.055C7.822 4.14 11.802 1 16.414 1c5.194 0 9.5 3.965 9.5 8.985V19h5.143a1 1 0 0 1 .814 1.581l-8.057 11.28a1 1 0 0 1-1.627 0L14.13 20.58A1 1 0 0 1 14.943 19h4.97z" id="E"/><filter x="-14.0%" y="-8.0%" width="127.9%" height="122.2%" id="F"><feOffset dy="1" in="SourceAlpha"/><feGaussianBlur stdDeviation="1"/><feComposite in2="SourceAlpha" operator="out"/><feColorMatrix values="0 0 0 0 0.137254902 0 0 0 0 0.145098039 0 0 0 0 0.156862745 0 0 0 0.6 0"/></filter></defs><use filter="url(#B)" xlink:href="#A" fill="#000"/><path d="M3 5.5A2.5 2.5 0 0 0 .5 8v34A2.5 2.5 0 0 0 3 44.5h39a2.5 2.5 0 0 0 2.5-2.5V3A2.5 2.5 0 0 0 42 .5H30A2.5 2.5 0 0 0 27.5 3v2.5H3z" stroke="#232528" fill="#656A72" fill-rule="evenodd"/><use filter="url(#D)" xlink:href="#C" fill="#000"/><rect x=".5" y="13.5" width="44" height="31" rx="3" stroke="#232528" fill="#BABEC4" fill-rule="evenodd"/><use filter="url(#F)" xlink:href="#E" fill="#000"/><path d="M20.414 9.985V19.5h-5.47a.5.5 0 0 0-.407.791l8.057 11.28a.5.5 0 0 0 .814 0l8.057-11.28a.5.5 0 0 0-.407-.791h-5.643V9.985c0-4.7-4.036-8.485-9-8.485-4.392 0-8.146 2.987-8.875 7.067a2.5 2.5 0 1 0 4.922.879c.3-1.686 1.983-2.946 3.952-2.946 2.207 0 4 1.566 4 3.485z" stroke="#232528" fill="#0AADF9" fill-rule="evenodd"/></svg>