<svg xmlns="http://www.w3.org/2000/svg" xmlns:xlink="http://www.w3.org/1999/xlink" width="49" height="49"><defs><path id="A" d="M45 12v21H7.552V12z"/><filter x="-9.3%" y="-11.9%" width="118.7%" height="133.3%" id="B"><feOffset dy="1" in="SourceAlpha"/><feGaussianBlur stdDeviation="1"/><feComposite in2="SourceAlpha" operator="out"/><feColorMatrix values="0 0 0 0 0.137254902 0 0 0 0 0.145098039 0 0 0 0 0.156862745 0 0 0 0.6 0"/></filter><path d="M45 3v5H7.552V0H42a3 3 0 0 1 3 3z" id="C"/><filter x="-9.3%" y="-31.2%" width="118.7%" height="187.5%" id="D"><feOffset dy="1" in="SourceAlpha"/><feGaussianBlur stdDeviation="1"/><feComposite in2="SourceAlpha" operator="out"/><feColorMatrix values="0 0 0 0 0.137254902 0 0 0 0 0.145098039 0 0 0 0 0.156862745 0 0 0 0.6 0"/></filter><path d="M7.552 45v-8H45v5a3 3 0 0 1-3 3H7.552z" id="E"/><filter x="-9.3%" y="-31.3%" width="118.7%" height="187.5%" id="F"><feOffset dy="1" in="SourceAlpha"/><feGaussianBlur stdDeviation="1"/><feComposite in2="SourceAlpha" operator="out"/><feColorMatrix values="0 0 0 0 0.137254902 0 0 0 0 0.145098039 0 0 0 0 0.156862745 0 0 0 0.6 0"/></filter><path d="M7 28H2a2 2 0 0 1-2-2v-7a2 2 0 0 1 2-2h5v-3.96c0-.2.056-.416.162-.59.288-.473.86-.593 1.278-.268l12.162 9.46a.99.99 0 0 1 .237.268c.288.473.182 1.12-.237 1.446L8.44 32.817c-.153.12-.335.183-.52.183-.508 0-.92-.465-.92-1.04V28z" id="G"/><filter x="-16.7%" y="-11.9%" width="133.1%" height="133.3%" id="H"><feOffset dy="1" in="SourceAlpha"/><feGaussianBlur stdDeviation="1"/><feComposite in2="SourceAlpha" operator="out"/><feColorMatrix values="0 0 0 0 0.137254902 0 0 0 0 0.145098039 0 0 0 0 0.156862745 0 0 0 0.6 0"/></filter></defs><g transform="translate(2 1)"><use filter="url(#B)" xlink:href="#A" fill="#000"/><path d="M44.5 12.5H8.052v20H44.5v-20z" stroke="#232528" fill="#656A72" fill-rule="evenodd"/><use filter="url(#D)" xlink:href="#C" fill="#000"/><path d="M8.052.5v7H44.5V3A2.5 2.5 0 0 0 42 .5H8.052z" stroke="#232528" fill="#fff" fill-rule="evenodd"/><use filter="url(#F)" xlink:href="#E" fill="#000"/><path d="M8.052 44.5H42a2.5 2.5 0 0 0 2.5-2.5v-4.5H8.052v7z" stroke="#232528" fill="#fff" fill-rule="evenodd"/><use filter="url(#H)" xlink:href="#G" fill="#000"/><path d="M2 27.5h5.5v4.46c0 .31.202.54.42.54.073 0 .147-.026.214-.078l12.162-9.46c.214-.167.274-.532.116-.79a.49.49 0 0 0-.116-.133l-12.162-9.46c-.178-.138-.408-.1-.544.133a.64.64 0 0 0-.089.329v4.46H2A1.5 1.5 0 0 0 .5 19v7A1.5 1.5 0 0 0 2 27.5z" stroke="#232528" fill="#0E9DDF" fill-rule="evenodd"/></g></svg>