<svg xmlns="http://www.w3.org/2000/svg" xmlns:xlink="http://www.w3.org/1999/xlink" width="45" height="45"><defs><path d="M7 12h37a1 1 0 0 1 1 1v19a1 1 0 0 1-1 1H7V12z" id="A"/><filter x="-9.2%" y="-11.9%" width="118.4%" height="133.3%" id="B"><feOffset dy="1" in="SourceAlpha"/><feGaussianBlur stdDeviation="1"/><feComposite in2="SourceAlpha" operator="out"/><feColorMatrix values="0 0 0 0 0.137254902 0 0 0 0 0.145098039 0 0 0 0 0.156862745 0 0 0 0.6 0"/></filter><path d="M10 0h32a3 3 0 0 1 3 3v5H7V3a3 3 0 0 1 3-3z" id="C"/><filter x="-9.2%" y="-31.2%" width="118.4%" height="187.5%" id="D"><feOffset dy="1" in="SourceAlpha"/><feGaussianBlur stdDeviation="1"/><feComposite in2="SourceAlpha" operator="out"/><feColorMatrix values="0 0 0 0 0.137254902 0 0 0 0 0.145098039 0 0 0 0 0.156862745 0 0 0 0.6 0"/></filter><path d="M9.533 45C8.134 45 7 43.657 7 42v-5h38v5c0 1.657-1.134 3-2.533 3H9.533z" id="E"/><path d="M7 28H2a2 2 0 0 1-2-2v-7a2 2 0 0 1 2-2h5v-3.96c0-.2.056-.416.162-.59.288-.473.86-.593 1.278-.268l12.162 9.46a.99.99 0 0 1 .237.268c.288.473.182 1.12-.237 1.446L8.44 32.817c-.153.12-.335.183-.52.183-.508 0-.92-.465-.92-1.04V28z" id="F"/><filter x="-16.7%" y="-11.9%" width="133.1%" height="133.3%" id="G"><feOffset dy="1" in="SourceAlpha"/><feGaussianBlur stdDeviation="1"/><feComposite in2="SourceAlpha" operator="out"/><feColorMatrix values="0 0 0 0 0.137254902 0 0 0 0 0.145098039 0 0 0 0 0.156862745 0 0 0 0.6 0"/></filter></defs><g fill="none"><g transform="matrix(-1 0 0 1 52 0)"><use filter="url(#B)" xlink:href="#A" fill="#000"/><path d="M7.5 12.5v20H44a.5.5 0 0 0 .5-.5V13a.5.5 0 0 0-.5-.5H7.5z" stroke="#232528" fill="#656A72" fill-rule="evenodd"/><use filter="url(#D)" xlink:href="#C" fill="#000"/><path d="M7.5 7.5h37V3A2.5 2.5 0 0 0 42 .5H10A2.5 2.5 0 0 0 7.5 3v4.5z" stroke="#232528" fill="#fff" fill-rule="evenodd"/><use filter="url(#D)" xlink:href="#E" fill="#000"/><path d="M44.5 37.5h-37V42c0 1.398.93 2.5 2.033 2.5h32.933c1.102 0 2.033-1.102 2.033-2.5v-4.5z" stroke="#232528" fill="#fff" fill-rule="evenodd"/></g><use filter="url(#G)" xlink:href="#F" fill="#000"/><path d="M2 27.5h5.5v4.46c0 .31.202.54.42.54.073 0 .147-.026.214-.078l12.162-9.46c.214-.167.274-.532.116-.79a.49.49 0 0 0-.116-.133l-12.162-9.46c-.178-.138-.408-.1-.544.133a.64.64 0 0 0-.089.329v4.46H2A1.5 1.5 0 0 0 .5 19v7A1.5 1.5 0 0 0 2 27.5z" stroke="#232528" fill="#0E9DDF" fill-rule="evenodd"/></g></svg>