<svg xmlns="http://www.w3.org/2000/svg" xmlns:xlink="http://www.w3.org/1999/xlink" width="49" height="50"><defs><rect id="A" y="2" width="45" height="44" rx="3"/><filter x="-7.8%" y="-5.7%" width="115.6%" height="115.9%" id="B"><feOffset dy="1" in="SourceAlpha"/><feGaussianBlur stdDeviation="1"/><feComposite in2="SourceAlpha" operator="out"/><feColorMatrix values="0 0 0 0 0.137254902 0 0 0 0 0.145098039 0 0 0 0 0.156862745 0 0 0 0.6 0"/></filter><rect id="C" width="37" height="36" rx="3" y="0"/><filter x="-9.5%" y="-6.9%" width="118.9%" height="119.4%" id="D"><feOffset dy="1" in="SourceAlpha"/><feGaussianBlur stdDeviation="1"/><feComposite in2="SourceAlpha" operator="out"/><feColorMatrix values="0 0 0 0 0.137254902 0 0 0 0 0.145098039 0 0 0 0 0.156862745 0 0 0 0.6 0"/></filter><path d="M14.93 0h15.14c2.045 0 3.855 1.128 4.474 2.788l1.346 3.606c.393 1.053-.3 2.177-1.526 2.512-.23.062-.47.094-.71.094H11.347C10.05 9 9 8.105 9 7a1.73 1.73 0 0 1 .11-.606l1.346-3.606C11.076 1.128 12.885 0 14.93 0z" id="E"/><filter x="-13.0%" y="-27.8%" width="125.9%" height="177.8%" id="F"><feOffset dy="1" in="SourceAlpha"/><feGaussianBlur stdDeviation="1"/><feComposite in2="SourceAlpha" operator="out"/><feColorMatrix values="0 0 0 0 0.137254902 0 0 0 0 0.145098039 0 0 0 0 0.156862745 0 0 0 0.6 0"/></filter></defs><g transform="translate(2 1)" fill="none"><use filter="url(#B)" xlink:href="#A" fill="#000"/><rect x=".5" y="2.5" width="44" height="43" rx="3" stroke="#232528" fill="#0AADF9" fill-rule="evenodd"/><g transform="translate(4 6)"><use filter="url(#D)" xlink:href="#C" fill="#000"/><rect x=".5" y=".5" width="36" height="35" rx="3" stroke="#232528" fill="#fff" fill-rule="evenodd"/><path d="M13.124 22.12c-.374.37-.98.37-1.354 0l-3.5-3.444c-.374-.37-.374-.967 0-1.336l3.5-3.444c.374-.37.98-.37 1.354 0l.677.668c.374.37.374.967 0 1.336l-2.136 2.11 2.137 2.108c.374.37.374.967 0 1.336l-.677.667zm10.03-.667c-.374-.37-.374-.967 0-1.336l2.136-2.11-2.136-2.108c-.374-.37-.374-.967 0-1.336l.677-.668c.374-.37.98-.37 1.354 0l3.5 3.444c.374.37.374.967 0 1.336l-3.5 3.444c-.374.37-.98.37-1.354 0l-.677-.667zm-2.912-10.025c.65.172 1.036.837.865 1.486L18.26 23.405a1.23 1.23 0 0 1-1.504.868c-.65-.17-1.036-.837-.865-1.486l2.848-10.492c.177-.653.85-1.04 1.504-.868z" fill="#232528"/></g><use filter="url(#F)" xlink:href="#E" fill="#000"/><path d="M14.93.5c-1.845 0-3.463 1.008-4.006 2.463L9.58 6.57A1.23 1.23 0 0 0 9.5 7c0 .81.81 1.5 1.847 1.5h22.305c.197 0 .393-.026.58-.077.966-.262 1.472-1.094 1.188-1.855l-1.346-3.606C33.532 1.508 31.915.5 30.07.5H14.93z" stroke="#232528" fill="#BABEC4" fill-rule="evenodd"/></g></svg>