<svg xmlns="http://www.w3.org/2000/svg" xmlns:xlink="http://www.w3.org/1999/xlink" width="45" height="45"><defs><rect id="A" width="45" height="45" rx="3" y="0"/><filter x="-7.8%" y="-5.6%" width="115.6%" height="115.6%" id="B"><feOffset dy="1" in="SourceAlpha"/><feGaussianBlur stdDeviation="1"/><feComposite in2="SourceAlpha" operator="out"/><feColorMatrix values="0 0 0 0 0.137254902 0 0 0 0 0.145098039 0 0 0 0 0.156862745 0 0 0 0.6 0"/></filter><path id="C" d="M24.5 7.59v-2.5a.5.5 0 0 1 .5-.5h8a.5.5 0 0 1 .5.5v2.5h-9z"/></defs><g fill="none"><use filter="url(#B)" xlink:href="#A" fill="#000"/><g stroke="#232528"><rect x=".5" y=".5" width="44" height="44" rx="3" fill="#BABEC4" fill-rule="evenodd"/><g fill-rule="nonzero"><path d="M.5 7.5h44V3A2.5 2.5 0 0 0 42 .5H3A2.5 2.5 0 0 0 .5 3v4.5z" fill="#BABEC4"/><path d="M.5 7.5v6h44v-6h-20V5a.5.5 0 0 0-.5-.5h-8a.5.5 0 0 0-.5.5v2.5H.5z" fill="#E7E8EA"/><g stroke-width=".5" transform="matrix(1 0 0 -1 0 8)"><rect x="2.75" y="2.75" width="2.5" height="2.5" rx="1" fill="#E53422"/><rect x="6.75" y="2.75" width="2.5" height="2.5" rx="1" fill="#FEF849"/><rect x="10.75" y="2.75" width="2.5" height="2.5" rx="1" fill="#80CA0F"/></g><g transform="matrix(1 0 0 -1 0 21)"><g stroke-width=".5" fill="#0AADF9"><rect x="2.25" y="9.25" width="2.5" height="2.5" rx="1"/><rect x="6.25" y="9.25" width="2.5" height="2.5" rx="1"/></g><rect x="10.25" y="9.25" width="32.5" height="2.5" rx="1" stroke-width=".5" fill="#fff"/></g><g fill="#656A72"><use xlink:href="#C"/><use xlink:href="#C" x="9"/></g><path d="M3.5 13.5h38v31h-38z" fill="#fff"/><path d="M30.985 31.536H34v3.536a.5.5 0 0 0 .794.404l8.3-6.036a.5.5 0 0 0 0-.809l-8.3-6.036A.5.5 0 0 0 34 23v3.536h-3.015c-4.7 0-8.485 4.036-8.485 9 0 1.738.467 3.42 1.348 4.87a8.96 8.96 0 0 0 1.011 1.358 2.5 2.5 0 0 0 3.71-3.353 3.96 3.96 0 0 1-.446-.601c-.406-.67-.622-1.455-.622-2.276 0-2.207 1.566-4 3.485-4z" fill="#F59024"/></g></g><g fill-rule="nonzero" fill="#656A72"><rect x="6.5" y="16.5" width="5" height="4" rx="1" stroke="#656A72"/><rect x="13" y="17" width="8" height="3" rx="1"/><rect x="27" y="18" width="5" height="1" rx=".5"/><rect x="7" y="24" width="20" height="1" rx=".5"/><rect x="7" y="28" width="15" height="1" rx=".5"/><rect x="7" y="32" width="13" height="1" rx=".5"/><rect x="7" y="36" width="13" height="1" rx=".5"/><rect x="7" y="40.098" width="13" height="1" rx=".5"/><rect x="33" y="18" width="5" height="1" rx=".5"/></g></g></svg>