<svg xmlns="http://www.w3.org/2000/svg" xmlns:xlink="http://www.w3.org/1999/xlink" width="45" height="45"><defs><rect id="A" width="45" height="45" rx="3" y="0"/><filter x="-7.8%" y="-5.6%" width="115.6%" height="115.6%" id="B"><feOffset dy="1" in="SourceAlpha"/><feGaussianBlur stdDeviation="1"/><feComposite in2="SourceAlpha" operator="out"/><feColorMatrix values="0 0 0 0 0.137254902 0 0 0 0 0.145098039 0 0 0 0 0.156862745 0 0 0 0.6 0"/></filter><rect id="C" width="17" height="17" rx="3" y="0"/><filter x="-20.6%" y="-14.7%" width="141.2%" height="141.2%" id="D"><feOffset dy="1" in="SourceAlpha"/><feGaussianBlur stdDeviation="1"/><feComposite in2="SourceAlpha" operator="out"/><feColorMatrix values="0 0 0 0 0.137254902 0 0 0 0 0.145098039 0 0 0 0 0.156862745 0 0 0 0.6 0"/></filter></defs><g fill="none"><use filter="url(#B)" xlink:href="#A" fill="#000"/><g stroke="#232528"><rect x=".5" y=".5" width="44" height="44" rx="3" fill="#656A72" fill-rule="evenodd"/><path d="M5.5 11.5h34v33h-34z" fill="#fff"/><path d="M.5 7.5h44V3A2.5 2.5 0 0 0 42 .5H3A2.5 2.5 0 0 0 .5 3v4.5z" fill="#BABEC4"/><path d="M.5 6.5v6h44v-6h-31v-3a1 1 0 0 0-1-1h-8a1 1 0 0 0-1 1v3h-3z" fill="#E7E8EA"/><g transform="matrix(1 0 0 -1 0 17)"><g fill="#656A72" stroke-width=".5"><rect x="3" y="6" width="3" height="3" rx="1"/><rect x="7" y="6" width="3" height="3" rx="1"/></g><rect x="11" y="6" width="31" height="3" rx="1" stroke-width=".75" fill="#fff"/></g><path d="M13.5 6.5v-3a1 1 0 0 1 1-1h7a1 1 0 0 1 1 1v3h-9z" fill="#656A72"/><rect transform="matrix(1 0 0 -1 0 7)" x="39.75" y="2.25" width="2.5" height="2.5" rx=".5" stroke-width=".5" fill="#E53422"/></g><g transform="translate(14 14)"><use filter="url(#D)" xlink:href="#C" fill="#000"/><rect x=".5" y=".5" width="16" height="16" rx="3" stroke="#232528" fill="#fff" fill-rule="evenodd"/><path d="M6.03 10.446c-.172.174-.45.174-.622 0L3.805 8.82a.45.45 0 0 1 0-.631L5.408 6.56c.172-.174.45-.174.622 0l.31.315a.45.45 0 0 1 0 .631l-.98.996.982.996a.45.45 0 0 1 0 .631l-.31.315zm4.61-.315a.45.45 0 0 1 0-.631l.98-.996-.98-.996a.45.45 0 0 1 0-.631l.31-.315c.172-.174.45-.174.622 0l1.603 1.626a.45.45 0 0 1 0 .631l-1.603 1.626c-.172.174-.45.174-.622 0l-.31-.315zM9.302 5.396a.57.57 0 0 1 .4.693l-1.315 4.977a.56.56 0 0 1-.684.398.57.57 0 0 1-.404-.694l1.315-4.977a.56.56 0 0 1 .684-.398z" fill="#232528"/></g><path d="M17.38 43v-4.142H13a.5.5 0 0 1-.397-.804l9.476-12.358a.51.51 0 0 1 .092-.092.5.5 0 0 1 .701.092l9.493 12.357a.5.5 0 0 1-.397.805h-4.59V43a1.5 1.5 0 0 1-1.5 1.5h-7a1.5 1.5 0 0 1-1.5-1.5z" stroke="#232528" fill="#F59024" fill-rule="nonzero"/></g></svg>