<svg xmlns="http://www.w3.org/2000/svg" xmlns:xlink="http://www.w3.org/1999/xlink" width="68" height="68"><defs><path d="M41.663 15.806c-3.077-2.194-6.76-3.42-10.636-3.42-10.382 0-18.842 8.756-18.842 19.613s8.46 19.613 18.842 19.613c3.365 0 6.092 2.773 6.092 6.194S34.392 64 31.027 64C13.867 64 0 49.65 0 32S13.867 0 31.027 0c7.692 0 14.917 2.9 20.486 7.964L60.9.49c.312-.25.683-.412 1.063-.467 1.038-.152 1.884.517 1.89 1.494L64 29.934c.001.217-.04.438-.12.652-.367.967-1.452 1.582-2.423 1.374l-28.24-6.05c-.356-.076-.662-.258-.88-.52-.592-.72-.38-1.852.47-2.53l8.856-7.05z" id="A"/><filter x="-5.5%" y="-3.9%" width="110.9%" height="110.9%" id="B"><feOffset dy="1" in="SourceAlpha"/><feGaussianBlur stdDeviation="1"/><feComposite in2="SourceAlpha" operator="out"/><feColorMatrix values="0 0 0 0 0.137254902 0 0 0 0 0.145098039 0 0 0 0 0.156862745 0 0 0 0.6 0"/></filter></defs><g transform="translate(2 1)" fill-rule="nonzero"><use filter="url(#B)" xlink:href="#A" fill="#000"/><path d="M41.954 15.4l.54.385-9.375 7.464c-.647.515-.8 1.334-.397 1.822.144.175.35.297.598.35l28.24 6.05c.726.156 1.57-.323 1.85-1.062.06-.158.1-.318.09-.472l-.147-28.418c-.003-.663-.57-1.11-1.316-1.002-.292.043-.58.17-.824.364l-9.72 7.74-.315-.286C45.627 3.297 38.5.5 31.027.5 14.163.5.5 14.607.5 32s13.663 31.5 30.527 31.5c3.087 0 5.592-2.547 5.592-5.694s-2.506-5.694-5.592-5.694c-10.68 0-19.342-9.002-19.342-20.113s8.663-20.113 19.342-20.113c3.935 0 7.726 1.23 10.927 3.512z" stroke="#232528" fill="#0E9DDF" fill-rule="evenodd"/></g></svg>