<svg xmlns="http://www.w3.org/2000/svg" xmlns:xlink="http://www.w3.org/1999/xlink" width="45" height="45"><defs><circle id="A" cx="22.5" cy="22.5" r="22.5"/><filter x="-7.8%" y="-5.6%" width="115.6%" height="115.6%" id="B"><feOffset dy="1" in="SourceAlpha"/><feGaussianBlur stdDeviation="1"/><feColorMatrix values="0 0 0 0 0.137254902 0 0 0 0 0.145098039 0 0 0 0 0.156862745 0 0 0 0.6 0"/></filter><path d="M33.118 24.217l-15.063 10.44c-.906.628-2.128.368-2.728-.58A2.13 2.13 0 0 1 15 32.94V12.06c0-1.138.88-2.06 1.968-2.06.386 0 .764.12 1.087.342l15.063 10.44c.906.628 1.155 1.906.554 2.855-.146.23-.334.428-.554.58z" id="C"/><filter x="-21.1%" y="-12.0%" width="142.1%" height="132.0%" id="D"><feMorphology radius="0.5" operator="dilate" in="SourceAlpha"/><feOffset dy="1"/><feGaussianBlur stdDeviation="1"/><feComposite in2="SourceAlpha" operator="out"/><feColorMatrix values="0 0 0 0 0.137254902 0 0 0 0 0.145098039 0 0 0 0 0.156862745 0 0 0 0.6 0"/></filter></defs><use filter="url(#B)" xlink:href="#A" fill="#000"/><use xlink:href="#A" fill="#232528"/><circle cx="22.5" cy="22.5" r="21.5" fill="#80CA0F"/><use filter="url(#D)" xlink:href="#C" fill="#000"/><use xlink:href="#C" stroke="#232528" fill="#fff"/></svg>