<svg xmlns="http://www.w3.org/2000/svg" xmlns:xlink="http://www.w3.org/1999/xlink" width="45" height="45"><defs><path d="M3 0h32.757a3 3 0 0 1 2.121.879L44.12 7.12A3 3 0 0 1 45 9.243V42a3 3 0 0 1-3 3H3a3 3 0 0 1-3-3V3a3 3 0 0 1 3-3z" id="A"/><filter x="-7.8%" y="-5.6%" width="115.6%" height="115.6%" id="B"><feOffset dy="1" in="SourceAlpha"/><feGaussianBlur stdDeviation="1"/><feComposite in2="SourceAlpha" operator="out"/><feColorMatrix values="0 0 0 0 0.137254902 0 0 0 0 0.145098039 0 0 0 0 0.156862745 0 0 0 0.6 0"/></filter></defs><use filter="url(#B)" xlink:href="#A" fill="#000"/><path d="M3 .5A2.5 2.5 0 0 0 .5 3v39A2.5 2.5 0 0 0 3 44.5h39a2.5 2.5 0 0 0 2.5-2.5V9.243a2.5 2.5 0 0 0-.732-1.768l-6.243-6.243A2.5 2.5 0 0 0 35.757.5H3z" stroke="#232528" fill="#0AADF9" fill-rule="evenodd"/><path d="M8 1h28a1 1 0 0 1 1 1v11a2 2 0 0 1-2 2H10a2 2 0 0 1-2-2V1z" fill="#656A72"/><rect x="12" y="3" width="5" height="9" rx="1" fill="#232528"/><path d="M10 23h25a2 2 0 0 1 2 2v19H8V25a2 2 0 0 1 2-2z" fill="#fff"/><g fill="#656A72"><rect x="11" y="28" width="23" height="1" rx=".5"/><rect x="11" y="33" width="23" height="1" rx=".5"/><rect x="11" y="38" width="23" height="1" rx=".5"/></g></svg>