<svg xmlns="http://www.w3.org/2000/svg" xmlns:xlink="http://www.w3.org/1999/xlink" width="48" height="61"><defs><path d="M23.827 26.683L39.814 13.31c1.954-1.455 4.718-1.05 6.174.904.583.783.94 1.585 1.072 2.375s.04 1.57-.27 2.306-.844 1.435-1.593 2.062L31.09 32.764 45.196 44.57c.75.627 1.28 1.324 1.593 2.062s.403 1.516.27 2.306-.49 1.59-1.072 2.375c-1.455 1.954-4.22 2.36-6.174.904l-.197-.155-15.79-13.217L7.84 52.217c-1.954 1.455-4.718 1.05-6.174-.904-.583-.783-.94-1.585-1.072-2.375s-.04-1.57.27-2.306.844-1.435 1.593-2.062l14.105-11.806L2.457 20.957c-.75-.627-1.28-1.324-1.593-2.062S.46 17.38.594 16.59s.49-1.59 1.072-2.375c1.455-1.954 4.22-2.36 6.174-.904l.197.155 15.79 13.217z" id="A"/><filter x="-7.5%" y="-6.1%" width="115.0%" height="117.2%" id="B"><feOffset dy="1" in="SourceAlpha"/><feGaussianBlur stdDeviation="1"/><feComposite in2="SourceAlpha" operator="out"/><feColorMatrix values="0 0 0 0 0.137254902 0 0 0 0 0.145098039 0 0 0 0 0.156862745 0 0 0 0.6 0"/></filter><path d="M28 16.684V44l.9 8.19c.038.346.042.464.032.597a1.29 1.29 0 0 1-.086.377c-.048.124-.102.23-.287.524l-3.72 5.953a1 1 0 0 1-1.696 0L19.43 53.7c-.184-.295-.24-.4-.287-.524a1.29 1.29 0 0 1-.086-.377c-.01-.133-.007-.25.032-.597L20 44V16.54c-.175-.206-.454-.508-.925-.952C17.33 13.945 17 9.612 17 7c0-4.506 5-7 7-7s7 2.494 7 7c0 2.614-.514 6.77-2.08 8.593-.24.28-.54.763-.92 1.09z" id="C"/><filter x="-25.0%" y="-4.2%" width="150.0%" height="111.6%" id="D"><feOffset dy="1" in="SourceAlpha"/><feGaussianBlur stdDeviation="1"/><feComposite in2="SourceAlpha" operator="out"/><feColorMatrix values="0 0 0 0 0.137254902 0 0 0 0 0.145098039 0 0 0 0 0.156862745 0 0 0 0.6 0"/></filter><ellipse id="E" cx="21" cy="22.05" rx="21" ry="22.05"/><filter x="-8.3%" y="-5.7%" width="116.7%" height="115.9%" id="F"><feOffset dy="1" in="SourceAlpha"/><feGaussianBlur stdDeviation="1"/><feColorMatrix values="0 0 0 0 0.137254902 0 0 0 0 0.145098039 0 0 0 0 0.156862745 0 0 0 0.6 0"/></filter></defs><g fill="none"><use filter="url(#B)" xlink:href="#A" fill="#000"/><path d="M39.94 13.85L23.827 27.335 7.54 13.712c-1.733-1.3-4.184-.932-5.474.8-.533.715-.86 1.443-.98 2.16-.117.696-.037 1.38.238 2.03.282.668.77 1.3 1.453 1.873l14.563 12.2-14.563 12.2c-.684.572-1.17 1.205-1.453 1.873-.275.65-.355 1.333-.238 2.03.12.716.447 1.444.98 2.16 1.3 1.733 3.74 2.092 5.474.8l.174-.138 16.112-13.486 16.286 13.624c1.733 1.3 4.184.932 5.474-.8.533-.715.86-1.443.98-2.16.117-.696.037-1.38-.238-2.03-.282-.668-.77-1.3-1.453-1.873l-14.563-12.2 14.563-12.2c.684-.572 1.17-1.205 1.453-1.873.275-.65.355-1.333.238-2.03-.12-.716-.447-1.444-.98-2.16-1.3-1.733-3.74-2.092-5.474-.8l-.174.138z" stroke="#232528" fill="#80CA0F" fill-rule="evenodd"/><use filter="url(#D)" xlink:href="#C" fill="#000"/><path d="M27.5 44V16.454l.174-.15a3.08 3.08 0 0 0 .387-.417l.48-.62C29.788 13.815 30.5 10.316 30.5 7c0-3.47-3.83-6.5-6.5-6.5S17.5 3.53 17.5 7c0 3.75.602 6.986 1.918 8.226l.963.992.12.14-.003 27.698-.9 8.19c-.033.3-.038.4-.03.503.007.084.023.157.054.235.038.097.085.185.245.44l3.72 5.953a.5.5 0 0 0 .848 0l3.72-5.953c.16-.255.207-.343.245-.44.03-.08.047-.15.054-.235.008-.104.003-.204-.03-.503L27.5 44z" stroke="#232528" fill="#80CA0F" fill-rule="evenodd"/><g transform="translate(3 10)"><use filter="url(#F)" xlink:href="#E" fill="#000"/><use xlink:href="#E" fill="#232528"/><path d="M21 43C9.954 43 1 33.598 1 22S9.954 1 21 1s20 9.402 20 21-8.954 21-20 21zm-8.716-21.496a1 1 0 0 0 0 .992l3.43 6a1 1 0 0 0 .868.504h8.84a1 1 0 0 0 .868-.504l3.43-6a1 1 0 0 0 0-.992l-3.43-6A1 1 0 0 0 25.42 15h-8.84a1 1 0 0 0-.868.504l-3.43 6zM12 7l3.703 5.555a1 1 0 0 0 .832.445h8.93a1 1 0 0 0 .832-.445L30 7l-1.72-.86A19.04 19.04 0 0 0 23.5 4.5c-1.65-.33-3.35-.33-5 0a19.04 19.04 0 0 0-4.78 1.64L12 7zm0 30l.47.313c1.668 1.112 3.553 1.857 5.53 2.187a18.25 18.25 0 0 0 6 0c1.977-.33 3.863-1.075 5.53-2.187L30 37l-3.703-5.555a1 1 0 0 0-.832-.445h-8.93a1 1 0 0 0-.832.445L12 37zM31 8l-3.657 5.486a1 1 0 0 0-.036 1.051l3.405 5.96a1 1 0 0 0 .868.504H38c0-5-4-11-7-13zM11 36l3.657-5.485a1 1 0 0 0 .036-1.051L11.288 23.5a1 1 0 0 0-.868-.503H4C4 28.007 8 34 11 36zm0-28c-3 2-7 8-7 13h6.42a1 1 0 0 0 .868-.504l3.405-5.96a1 1 0 0 0-.036-1.051L11 8zm20 28c3-2 7-7.993 7-12.993h-6.42a1 1 0 0 0-.868.503l-3.405 5.953a1 1 0 0 0 .036 1.051L31 36z" fill="#179D2B"/><g fill="#80CA0F" stroke="#232528"><path d="M12.718 21.752a.5.5 0 0 0 0 .496l3.43 6a.5.5 0 0 0 .434.252h8.84a.5.5 0 0 0 .434-.252l3.43-6a.5.5 0 0 0 0-.496l-3.43-6a.5.5 0 0 0-.434-.252h-8.84a.5.5 0 0 0-.434.252l-3.43 6zm.012-14.558l3.4 5.083a.5.5 0 0 0 .416.223h8.93a.5.5 0 0 0 .416-.223l3.4-5.083-1.213-.606C26.583 5.85 25.018 5.313 23.402 5c-1.586-.317-3.218-.317-4.804 0a18.56 18.56 0 0 0-4.655 1.597l-1.213.606zm-.037 29.666l3.426-5.14a.5.5 0 0 1 .416-.223h8.93a.5.5 0 0 1 .416.223l3.426 5.14-.053.036a13.67 13.67 0 0 1-5.335 2.11 17.75 17.75 0 0 1-5.836 0 13.67 13.67 0 0 1-5.335-2.11l-.053-.036zM31.13 8.706l-3.37 5.057a.5.5 0 0 0-.018.525l3.405 5.96a.5.5 0 0 0 .434.252h5.905c-.237-4.134-3.312-9.5-6.355-11.793zM10.87 35.294l3.37-5.057a.5.5 0 0 0 .018-.526l-3.405-5.953a.5.5 0 0 0-.434-.252H4.515c.237 4.133 3.3 9.482 6.355 11.787z"/><path d="M.996 9.532l2.975 5.3a.5.5 0 0 0 .46.255l6.856-.33a.5.5 0 0 0 .422-.272l2.68-5.26c-3.79-1.666-9.96-1.357-13.394.308z" transform="matrix(-.45399 .891007 .891007 .45399 2.829307 3.4918)"/><path d="M23.622 22.306l2.975 5.3a.5.5 0 0 0 .46.255l6.85-.33a.5.5 0 0 0 .421-.272L37 21.995c-3.8-1.665-9.952-1.355-13.387.31z" transform="matrix(.45399 -.891007 -.891007 -.45399 40.280548 66.468178)"/></g></g></g></svg>