<svg xmlns="http://www.w3.org/2000/svg" xmlns:xlink="http://www.w3.org/1999/xlink" width="49" height="48"><defs><rect id="A" width="36" height="36" rx="3" y="0"/><filter x="-9.7%" y="-6.9%" width="119.4%" height="119.4%" id="B"><feOffset dy="1" in="SourceAlpha"/><feGaussianBlur stdDeviation="1"/><feComposite in2="SourceAlpha" operator="out"/><feColorMatrix values="0 0 0 0 0.137254902 0 0 0 0 0.145098039 0 0 0 0 0.156862745 0 0 0 0.6 0"/></filter><rect id="C" y="13.05" width="31.086" height="31.086" rx="3"/><filter x="-11.3%" y="-8.0%" width="122.5%" height="122.5%" id="D"><feOffset dy="1" in="SourceAlpha"/><feGaussianBlur stdDeviation="1"/><feComposite in2="SourceAlpha" operator="out"/><feColorMatrix values="0 0 0 0 0.137254902 0 0 0 0 0.145098039 0 0 0 0 0.156862745 0 0 0 0.6 0"/></filter></defs><g transform="translate(2 1)" fill="none"><g transform="translate(8.55)"><use filter="url(#B)" xlink:href="#A" fill="#000"/><rect x=".5" y=".5" width="35" height="35" rx="3" stroke="#232528" fill="#fff" fill-rule="evenodd"/></g><use filter="url(#D)" xlink:href="#C" fill="#000"/><rect x=".5" y="13.55" width="30.086" height="30.086" rx="3" stroke="#232528" fill="#fff" fill-rule="evenodd"/><path d="M11.19 32.693c-.335.313-.88.313-1.214 0l-3.13-2.927c-.335-.313-.335-.822 0-1.136l3.13-2.927c.335-.313.88-.313 1.214 0l.607.567c.335.314.335.822 0 1.136L9.88 29.198l1.917 1.792c.335.313.335.822 0 1.136l-.607.567zm9-.567c-.335-.314-.335-.822 0-1.136l1.916-1.792-1.916-1.792c-.335-.313-.335-.822 0-1.136l.607-.567c.335-.313.88-.313 1.214 0l3.13 2.927c.335.314.335.822 0 1.136l-3.13 2.927c-.335.313-.88.313-1.214 0l-.607-.567zm-2.612-8.522a1.06 1.06 0 0 1 .771 1.286l-.01.034-2.526 8.814c-.168.588-.772.936-1.366.788a1.06 1.06 0 0 1-.771-1.286l.01-.034 2.526-8.814c.168-.588.772-.936 1.366-.788z" fill="#232528"/></g></svg>