<svg xmlns="http://www.w3.org/2000/svg" xmlns:xlink="http://www.w3.org/1999/xlink" width="54" height="54"><defs><rect id="A" width="50" height="50" rx="3" y="0"/><filter x="-7.0%" y="-5.0%" width="114.0%" height="114.0%" id="B"><feOffset dy="1" in="SourceAlpha"/><feGaussianBlur stdDeviation="1"/><feComposite in2="SourceAlpha" operator="out"/><feColorMatrix values="0 0 0 0 0.137254902 0 0 0 0 0.145098039 0 0 0 0 0.156862745 0 0 0 0.6 0"/></filter></defs><g transform="translate(2 1)"><use filter="url(#B)" xlink:href="#A" fill="#000"/><rect x=".5" y=".5" width="49" height="49" rx="3" stroke="#232528" fill="#fff" fill-rule="evenodd"/><path d="M17.32 31.6a1.38 1.38 0 0 1-1.934 0L10.4 26.68c-.534-.527-.534-1.38 0-1.91l4.985-4.92a1.38 1.38 0 0 1 1.934 0l.966.954c.534.527.534 1.38 0 1.908l-3.05 3.013 3.052 3.012c.534.527.534 1.382 0 1.91l-.966.954zm14.33-.954c-.534-.527-.534-1.38 0-1.91l3.05-3.012-3.05-3.012c-.534-.527-.534-1.38 0-1.908l.966-.954a1.38 1.38 0 0 1 1.934 0l4.985 4.92c.534.527.534 1.38 0 1.91L34.55 31.6a1.38 1.38 0 0 1-1.934 0l-.966-.954zm-4.41-14.388l.48.127a1.5 1.5 0 0 1 1.067 1.834l-4.2 15.467a1.5 1.5 0 0 1-1.831 1.057l-.48-.127a1.5 1.5 0 0 1-1.067-1.834l4.2-15.467a1.5 1.5 0 0 1 1.831-1.057z" fill="#232528"/></g></svg>