<svg xmlns="http://www.w3.org/2000/svg" xmlns:xlink="http://www.w3.org/1999/xlink" width="49" height="49"><defs><path d="M2 5h25V2a2 2 0 0 1 2-2h13a3 3 0 0 1 3 3v39a3 3 0 0 1-3 3H3a3 3 0 0 1-3-3V7a2 2 0 0 1 2-2z" id="A"/><filter x="-7.8%" y="-5.6%" width="115.6%" height="115.6%" id="B"><feOffset dy="1" in="SourceAlpha"/><feGaussianBlur stdDeviation="1"/><feComposite in2="SourceAlpha" operator="out"/><feColorMatrix values="0 0 0 0 0.137254902 0 0 0 0 0.145098039 0 0 0 0 0.156862745 0 0 0 0.6 0"/></filter><path d="M2 15h41a2 2 0 0 1 2 2v25a3 3 0 0 1-3 3H3a3 3 0 0 1-3-3V17a2 2 0 0 1 2-2z" id="C"/><filter x="-7.8%" y="-15.0%" width="115.6%" height="123.3%" id="D"><feOffset dy="-1" in="SourceAlpha"/><feGaussianBlur stdDeviation="1"/><feComposite in2="SourceAlpha" operator="out"/><feColorMatrix values="0 0 0 0 0.137254902 0 0 0 0 0.145098039 0 0 0 0 0.156862745 0 0 0 0.6 0"/></filter></defs><g transform="translate(2 1)" fill="none"><use filter="url(#B)" xlink:href="#A" fill="#000"/><g stroke="#232528"><path d="M2 5.5A1.5 1.5 0 0 0 .5 7v35A2.5 2.5 0 0 0 3 44.5h39a2.5 2.5 0 0 0 2.5-2.5V3A2.5 2.5 0 0 0 42 .5H29A1.5 1.5 0 0 0 27.5 2v3.5H2z" fill="#656A72" fill-rule="evenodd"/><path d="M6 9.5A1.5 1.5 0 0 0 4.5 11v29A1.5 1.5 0 0 0 6 41.5h33a1.5 1.5 0 0 0 1.5-1.5V11A1.5 1.5 0 0 0 39 9.5H6z" fill="#fff"/></g><path d="M12.784 34.424L7.43 29.242a1.39 1.39 0 0 1 0-2.011l5.353-5.182c.574-.556 1.503-.556 2.077 0l1.038 1.004a1.39 1.39 0 0 1 0 2.01l-3.277 3.173L15.9 31.41a1.39 1.39 0 0 1 0 2.01l-1.038 1.004c-.574.555-1.503.555-2.077 0zm15.318-1.004a1.39 1.39 0 0 1 0-2.01l3.277-3.173-3.277-3.172a1.39 1.39 0 0 1 0-2.01l1.038-1.004c.574-.556 1.503-.556 2.077 0l5.353 5.182a1.39 1.39 0 0 1 0 2.011l-5.353 5.182c-.574.555-1.503.555-2.077 0l-1.038-1.004zM23.37 17.988l2.662.7a.5.5 0 0 1 .358.609l-5.086 18.375a.5.5 0 0 1-.607.351l-2.662-.7a.5.5 0 0 1-.358-.609l5.086-18.375a.5.5 0 0 1 .607-.351z" fill="#232528"/><use filter="url(#D)" xlink:href="#C" fill="#000"/><path d="M2 15.5A1.5 1.5 0 0 0 .5 17v25A2.5 2.5 0 0 0 3 44.5h39a2.5 2.5 0 0 0 2.5-2.5V17a1.5 1.5 0 0 0-1.5-1.5H2z" stroke="#232528" fill="#BABEC4" fill-rule="evenodd"/></g></svg>