<svg xmlns="http://www.w3.org/2000/svg" xmlns:xlink="http://www.w3.org/1999/xlink" width="49" height="49"><defs><path d="M29.295 11.114C27.13 9.57 24.542 8.7 21.816 8.7c-7.3 0-13.248 6.157-13.248 13.8s5.95 13.8 13.248 13.8c2.366 0 4.284 1.95 4.284 4.355S24.182 45 21.816 45C9.75 45 0 34.91 0 22.5S9.75 0 21.816 0c5.41 0 10.49 2.046 14.404 5.6l6.6-5.256c.22-.175.48-.29.748-.33.73-.107 1.325.364 1.328 1.05L45 21.047c.001.152-.028.308-.085.458-.258.68-1.02 1.112-1.704.966l-19.857-4.253c-.25-.054-.466-.18-.618-.367-.416-.506-.268-1.303.33-1.78l6.227-4.958z" id="A"/><filter x="-7.8%" y="-5.6%" width="115.6%" height="115.6%" id="B"><feOffset dy="1" in="SourceAlpha"/><feGaussianBlur stdDeviation="1"/><feComposite in2="SourceAlpha" operator="out"/><feColorMatrix values="0 0 0 0 0.137254902 0 0 0 0 0.145098039 0 0 0 0 0.156862745 0 0 0 0.6 0"/></filter></defs><g transform="matrix(-1 0 0 1 47 1)" fill-rule="nonzero"><use filter="url(#B)" xlink:href="#A" fill="#000"/><path d="M29.585 10.707l.54.385-6.746 5.37c-.394.313-.483.796-.257 1.07.08.097.195.165.337.196l19.857 4.253c.438.094.96-.202 1.13-.655.036-.094.053-.188.053-.278l-.103-19.98C44.395.695 44.08.446 43.64.5c-.18.026-.357.105-.51.225L36.2 6.256l-.315-.286C32.01 2.453 27.032.5 21.816.5 10.042.5.5 10.35.5 22.5s9.542 22 21.316 22c2.088 0 3.784-1.724 3.784-3.855S23.904 36.8 21.816 36.8c-7.592 0-13.748-6.397-13.748-14.3S14.224 8.2 21.816 8.2c2.798 0 5.493.874 7.77 2.497z" stroke="#232528" fill="#F59024" fill-rule="evenodd"/></g></svg>