<svg xmlns="http://www.w3.org/2000/svg" xmlns:xlink="http://www.w3.org/1999/xlink" width="50" height="50"><defs><path d="M9.5 6.5h31a3 3 0 0 1 3 3v31a3 3 0 0 1-3 3h-31a3 3 0 0 1-3-3v-31a3 3 0 0 1 3-3zm7 9a1 1 0 0 0-1 1v17a1 1 0 0 0 1 1h17a1 1 0 0 0 1-1v-17a1 1 0 0 0-1-1h-17z" id="A"/><filter x="-9.5%" y="-6.8%" width="118.9%" height="118.9%" id="B"><feOffset dy="1" in="SourceAlpha"/><feGaussianBlur stdDeviation="1"/><feComposite in2="SourceAlpha" operator="out"/><feColorMatrix values="0 0 0 0 0.137254902 0 0 0 0 0.145098039 0 0 0 0 0.156862745 0 0 0 0.6 0"/></filter><rect id="C" x="18" y="18" width="14" height="14" rx="2.5"/><filter x="-25.0%" y="-17.9%" width="150.0%" height="150.0%" id="D"><feOffset dy="1" in="SourceAlpha"/><feGaussianBlur stdDeviation="1"/><feComposite in2="SourceAlpha" operator="out"/><feColorMatrix values="0 0 0 0 0.137254902 0 0 0 0 0.145098039 0 0 0 0 0.156862745 0 0 0 0.6 0"/></filter></defs><g fill="#80CA0F" stroke="#232528" stroke-width="1.5"><path d="M21.25 2A1.25 1.25 0 0 0 20 .75h-5A1.25 1.25 0 0 0 13.75 2v7A1.25 1.25 0 0 0 15 10.25h5A1.25 1.25 0 0 0 21.25 9V2zm15 0A1.25 1.25 0 0 0 35 .75h-5A1.25 1.25 0 0 0 28.75 2v7A1.25 1.25 0 0 0 30 10.25h5A1.25 1.25 0 0 0 36.25 9V2zm-15 39A1.25 1.25 0 0 0 20 39.75h-5A1.25 1.25 0 0 0 13.75 41v7A1.25 1.25 0 0 0 15 49.25h5A1.25 1.25 0 0 0 21.25 48v-7zm15 0A1.25 1.25 0 0 0 35 39.75h-5A1.25 1.25 0 0 0 28.75 41v7A1.25 1.25 0 0 0 30 49.25h5A1.25 1.25 0 0 0 36.25 48v-7z" stroke-width="1.5"/><rect x=".75" y="13.75" width="9.5" height="7.5" rx="2"/><rect x=".75" y="28.75" width="9.5" height="7.5" rx="2"/><rect x="39.75" y="13.75" width="9.5" height="7.5" rx="2"/><rect x="39.75" y="28.75" width="9.5" height="7.5" rx="2"/></g><use filter="url(#B)" xlink:href="#A" fill="#000"/><path d="M9.5 7.375c-1.174 0-2.125.95-2.125 2.125v31c0 1.174.95 2.125 2.125 2.125h31c1.174 0 2.125-.95 2.125-2.125v-31c0-1.174-.95-2.125-2.125-2.125h-31zm7 7.25h17c1.036 0 1.875.84 1.875 1.875v17c0 1.036-.84 1.875-1.875 1.875h-17c-1.036 0-1.875-.84-1.875-1.875v-17c0-1.036.84-1.875 1.875-1.875z" stroke="#232528" stroke-width="1.75" fill="#0AADF9" fill-rule="evenodd"/><use filter="url(#D)" xlink:href="#C" fill="#000"/><rect x="18.875" y="18.875" width="12.25" height="12.25" rx="2.5" stroke="#232528" stroke-width="1.75" fill="#F59024" fill-rule="evenodd"/></svg>