<svg xmlns="http://www.w3.org/2000/svg" xmlns:xlink="http://www.w3.org/1999/xlink" width="49" height="49"><defs><filter x="-31.0%" y="-26.0%" width="161.9%" height="152.0%" id="A"><feOffset dy="1" in="SourceAlpha"/><feGaussianBlur stdDeviation="1"/><feColorMatrix values="0 0 0 0 0.137254902 0 0 0 0 0.145098039 0 0 0 0 0.156862745 0 0 0 0.5 0" result="C"/><feMerge><feMergeNode in="C"/><feMergeNode in="SourceGraphic"/></feMerge></filter><path d="M2 0h5v43a2 2 0 0 1-2 2H2a2 2 0 0 1-2-2V2a2 2 0 0 1 2-2z" id="B"/><filter x="-50.0%" y="-5.6%" width="200.0%" height="115.6%" id="C"><feOffset dy="1" in="SourceAlpha"/><feGaussianBlur stdDeviation="1"/><feComposite in2="SourceAlpha" operator="out"/><feColorMatrix values="0 0 0 0 0.137254902 0 0 0 0 0.145098039 0 0 0 0 0.156862745 0 0 0 0.5 0"/></filter><filter x="-27.1%" y="-26.0%" width="154.2%" height="152.0%" id="D"><feOffset dy="1" in="SourceAlpha"/><feGaussianBlur stdDeviation="1"/><feColorMatrix values="0 0 0 0 0.137254902 0 0 0 0 0.145098039 0 0 0 0 0.156862745 0 0 0 0.5 0" result="C"/><feMerge><feMergeNode in="C"/><feMergeNode in="SourceGraphic"/></feMerge></filter></defs><g transform="translate(2 1)" fill="none"><g filter="url(#A)" transform="translate(24 3)" stroke="#232528"><path d="M.5.5h4v8h-4z" fill="#fff"/><path d="M4.5.5h7v8h-7z" fill="#232528"/><path d="M12.5.5v8h8V2A1.5 1.5 0 0 0 19 .5h-6.5z" fill="#fff"/><path d="M.5 8.5h4v8h-4z" fill="#232528"/><path d="M4.5 8.5h7v8h-7z" fill="#fff"/><path d="M12.5 8.5h8v8h-8zm-8 8h7v8h-7z" fill="#232528"/><path d="M12.5 16.5v8H19a1.5 1.5 0 0 0 1.5-1.5v-6.5h-8zm-12 0V23A1.5 1.5 0 0 0 2 24.5h2.5v-8h-4z" fill="#fff"/></g><use filter="url(#C)" xlink:href="#B" fill="#000"/><g stroke="#232528"><path d="M6.5.5H2A1.5 1.5 0 0 0 .5 2v41A1.5 1.5 0 0 0 2 44.5h3A1.5 1.5 0 0 0 6.5 43V.5z" fill="#656A72" fill-rule="evenodd"/><g filter="url(#D)" transform="translate(6)"><path d="M.5.5h9v8h-9z" fill="#232528"/><path d="M7.5.5h11v8h-11z" fill="#fff"/><path d="M17.5.5v8h6V2A1.5 1.5 0 0 0 22 .5h-4.5z" fill="#232528"/><path d="M.5 8.5h9v8h-9z" fill="#fff"/><path d="M7.5 8.5h11v8h-11z" fill="#232528"/><path d="M17.5 8.5h6v8h-6z" fill="#fff"/><path d="M.5 16.5h9v8h-9z" fill="#232528"/><path d="M7.5 16.5h11v8h-11z" fill="#fff"/><path d="M17.5 16.5v8H22a1.5 1.5 0 0 0 1.5-1.5v-6.5h-6z" fill="#232528"/></g></g></g></svg>